<mxfile host="65bd71144e">
    <diagram id="0NyPkbYhNPuNF79ZM3TT" name="Landing Page">
        <mxGraphModel dx="731" dy="980" grid="1" gridSize="10" guides="1" tooltips="1" connect="1" arrows="1" fold="1" page="1" pageScale="1" pageWidth="827" pageHeight="1169" math="0" shadow="0">
            <root>
                <mxCell id="0"/>
                <mxCell id="1" parent="0"/>
                <mxCell id="ay2sU7thOK2s3agFJC2v-8" style="edgeStyle=none;html=1;entryX=0;entryY=0.5;entryDx=0;entryDy=0;" parent="1" source="2" target="ay2sU7thOK2s3agFJC2v-7" edge="1">
                    <mxGeometry relative="1" as="geometry"/>
                </mxCell>
                <mxCell id="2" value="List the different factories already built" style="whiteSpace=wrap;html=1;" parent="1" vertex="1">
                    <mxGeometry x="239" y="300" width="350" height="60" as="geometry"/>
                </mxCell>
                <mxCell id="3" value="Instructions on how to use" style="whiteSpace=wrap;html=1;" parent="1" vertex="1">
                    <mxGeometry x="239" y="380" width="350" height="60" as="geometry"/>
                </mxCell>
                <mxCell id="5" value="Load factories from local data if exists" style="rounded=1;whiteSpace=wrap;html=1;fillColor=#6a00ff;fontColor=#ffffff;strokeColor=#3700CC;" parent="1" vertex="1">
                    <mxGeometry x="214" y="570" width="400" height="70" as="geometry"/>
                </mxCell>
                <mxCell id="6" value="LANDING PAGE" style="whiteSpace=wrap;html=1;fillColor=#1ba1e2;fontColor=#ffffff;strokeColor=#006EAF;fontSize=16;" parent="1" vertex="1">
                    <mxGeometry x="239" y="130" width="350" height="60" as="geometry"/>
                </mxCell>
                <mxCell id="ay2sU7thOK2s3agFJC2v-6" value="Create a new factory network" style="whiteSpace=wrap;html=1;" parent="1" vertex="1">
                    <mxGeometry x="239" y="220" width="350" height="60" as="geometry"/>
                </mxCell>
                <mxCell id="ay2sU7thOK2s3agFJC2v-7" value="Open or duplicate" style="ellipse;whiteSpace=wrap;html=1;fillColor=#d80073;fontColor=#ffffff;strokeColor=#A50040;" parent="1" vertex="1">
                    <mxGeometry x="680" y="240" width="120" height="60" as="geometry"/>
                </mxCell>
            </root>
        </mxGraphModel>
    </diagram>
    <diagram id="ExvvVejn2MadbHaS9NXJ" name="Factory Page">
        <mxGraphModel dx="1635" dy="698" grid="1" gridSize="10" guides="1" tooltips="1" connect="1" arrows="1" fold="1" page="1" pageScale="1" pageWidth="827" pageHeight="1169" math="0" shadow="0">
            <root>
                <mxCell id="m1mSu9gxE2nkgw_8FfeN-0"/>
                <mxCell id="m1mSu9gxE2nkgw_8FfeN-1" parent="m1mSu9gxE2nkgw_8FfeN-0"/>
                <mxCell id="rfMHJZaZ_TouJajGLgIo-0" value="FACTORY PAGE" style="whiteSpace=wrap;html=1;fillColor=#1ba1e2;fontColor=#ffffff;strokeColor=#006EAF;fontSize=16;" parent="m1mSu9gxE2nkgw_8FfeN-1" vertex="1">
                    <mxGeometry x="239" width="350" height="60" as="geometry"/>
                </mxCell>
                <mxCell id="rfMHJZaZ_TouJajGLgIo-1" value="Full screen workspace - no borders" style="whiteSpace=wrap;html=1;fontSize=16;verticalAlign=top;" parent="m1mSu9gxE2nkgw_8FfeN-1" vertex="1">
                    <mxGeometry y="80" width="827" height="1089" as="geometry"/>
                </mxCell>
                <mxCell id="rfMHJZaZ_TouJajGLgIo-2" value="Floating Tool Bar" style="whiteSpace=wrap;html=1;fontSize=16;fillColor=#60a917;fontColor=#ffffff;strokeColor=#2D7600;" parent="m1mSu9gxE2nkgw_8FfeN-1" vertex="1">
                    <mxGeometry x="19" y="770" width="790" height="130" as="geometry"/>
                </mxCell>
                <mxCell id="rfMHJZaZ_TouJajGLgIo-3" value="Plan&lt;br&gt;&lt;br&gt;can grow infinitely or shrink to a minimum size&lt;br&gt;&lt;br&gt;different colour to background&lt;br&gt;&lt;br&gt;zoom by scale - maximum 1, minimum 0.2?&lt;br&gt;&lt;br&gt;can be moved around the workspace&lt;br&gt;&lt;br&gt;moving limits to 1/2 over screen edge" style="whiteSpace=wrap;html=1;fontSize=16;verticalAlign=top;" parent="m1mSu9gxE2nkgw_8FfeN-1" vertex="1">
                    <mxGeometry x="30" y="150" width="767" height="419" as="geometry"/>
                </mxCell>
                <mxCell id="rfMHJZaZ_TouJajGLgIo-4" value="recentre canvas" style="whiteSpace=wrap;html=1;fontSize=16;" parent="m1mSu9gxE2nkgw_8FfeN-1" vertex="1">
                    <mxGeometry x="719" y="90" width="90" height="50" as="geometry"/>
                </mxCell>
                <mxCell id="rfMHJZaZ_TouJajGLgIo-6" value="HTML Canvas that draws connecting lines between building steps" style="whiteSpace=wrap;html=1;fontSize=16;" parent="m1mSu9gxE2nkgw_8FfeN-1" vertex="1">
                    <mxGeometry x="617" width="210" height="60" as="geometry"/>
                </mxCell>
                <mxCell id="rfMHJZaZ_TouJajGLgIo-7" value="example" style="whiteSpace=wrap;html=1;fontSize=16;verticalAlign=top;" parent="m1mSu9gxE2nkgw_8FfeN-1" vertex="1">
                    <mxGeometry x="414" y="379" width="406" height="190" as="geometry"/>
                </mxCell>
                <mxCell id="rfMHJZaZ_TouJajGLgIo-8" value="50vw" style="endArrow=classic;html=1;fontSize=16;" parent="m1mSu9gxE2nkgw_8FfeN-1" target="rfMHJZaZ_TouJajGLgIo-7" edge="1">
                    <mxGeometry width="50" height="50" relative="1" as="geometry">
                        <mxPoint x="40" y="474" as="sourcePoint"/>
                        <mxPoint x="440" y="400" as="targetPoint"/>
                    </mxGeometry>
                </mxCell>
                <mxCell id="IGL1lOsAKQa0wsL3kGdc-0" value="Right click - context menu&lt;br&gt;Add item" style="whiteSpace=wrap;html=1;fontSize=16;" parent="m1mSu9gxE2nkgw_8FfeN-1" vertex="1">
                    <mxGeometry x="30" y="590" width="190" height="100" as="geometry"/>
                </mxCell>
                <mxCell id="M2AmuSxXpGl0_qwWHnYn-0" value="FACTORY NAME: editable" style="whiteSpace=wrap;html=1;fontSize=16;fillColor=#60a917;fontColor=#ffffff;strokeColor=#2D7600;" parent="m1mSu9gxE2nkgw_8FfeN-1" vertex="1">
                    <mxGeometry x="289" y="110" width="250" height="30" as="geometry"/>
                </mxCell>
            </root>
        </mxGraphModel>
    </diagram>
    <diagram id="1mxm2wDM3HF5qOrlimuS" name="Network Page">
        <mxGraphModel dx="1635" dy="698" grid="1" gridSize="10" guides="1" tooltips="1" connect="1" arrows="1" fold="1" page="1" pageScale="1" pageWidth="827" pageHeight="1169" math="0" shadow="0">
            <root>
                <mxCell id="9nH-dpEsVBnvD8MiBPRY-0"/>
                <mxCell id="9nH-dpEsVBnvD8MiBPRY-1" parent="9nH-dpEsVBnvD8MiBPRY-0"/>
                <mxCell id="PrjjOS26Crqu8Is3Ey7G-0" value="NETWORK PAGE" style="whiteSpace=wrap;html=1;fillColor=#1ba1e2;fontColor=#ffffff;strokeColor=#006EAF;fontSize=16;" parent="9nH-dpEsVBnvD8MiBPRY-1" vertex="1">
                    <mxGeometry x="239" width="350" height="60" as="geometry"/>
                </mxCell>
                <mxCell id="6DUrZyAPnYil1148MxgK-0" value="Full screen workspace - no borders" style="whiteSpace=wrap;html=1;fontSize=16;verticalAlign=top;" parent="9nH-dpEsVBnvD8MiBPRY-1" vertex="1">
                    <mxGeometry y="80" width="827" height="1089" as="geometry"/>
                </mxCell>
                <mxCell id="FskPtGiqfpP2CgFs8_vJ-0" value="Satisfactory Map" style="whiteSpace=wrap;html=1;fontSize=16;verticalAlign=top;" parent="9nH-dpEsVBnvD8MiBPRY-1" vertex="1">
                    <mxGeometry x="73" y="170" width="681" height="350" as="geometry"/>
                </mxCell>
                <mxCell id="FskPtGiqfpP2CgFs8_vJ-15" style="edgeStyle=none;html=1;entryX=0;entryY=0.25;entryDx=0;entryDy=0;fontSize=16;" parent="9nH-dpEsVBnvD8MiBPRY-1" source="FskPtGiqfpP2CgFs8_vJ-3" target="FskPtGiqfpP2CgFs8_vJ-4" edge="1">
                    <mxGeometry relative="1" as="geometry"/>
                </mxCell>
                <mxCell id="FskPtGiqfpP2CgFs8_vJ-3" value="Factory" style="shape=offPageConnector;whiteSpace=wrap;html=1;fontSize=16;" parent="9nH-dpEsVBnvD8MiBPRY-1" vertex="1">
                    <mxGeometry x="159" y="290" width="80" height="80" as="geometry"/>
                </mxCell>
                <mxCell id="FskPtGiqfpP2CgFs8_vJ-4" value="Factory" style="shape=offPageConnector;whiteSpace=wrap;html=1;fontSize=16;" parent="9nH-dpEsVBnvD8MiBPRY-1" vertex="1">
                    <mxGeometry x="550" y="240" width="80" height="80" as="geometry"/>
                </mxCell>
                <mxCell id="FskPtGiqfpP2CgFs8_vJ-16" style="edgeStyle=none;html=1;entryX=0;entryY=0.5;entryDx=0;entryDy=0;fontSize=16;" parent="9nH-dpEsVBnvD8MiBPRY-1" source="FskPtGiqfpP2CgFs8_vJ-5" target="FskPtGiqfpP2CgFs8_vJ-4" edge="1">
                    <mxGeometry relative="1" as="geometry"/>
                </mxCell>
                <mxCell id="FskPtGiqfpP2CgFs8_vJ-5" value="Node" style="ellipse;whiteSpace=wrap;html=1;aspect=fixed;fontSize=16;" parent="9nH-dpEsVBnvD8MiBPRY-1" vertex="1">
                    <mxGeometry x="440" y="290" width="40" height="40" as="geometry"/>
                </mxCell>
                <mxCell id="FskPtGiqfpP2CgFs8_vJ-17" style="edgeStyle=none;html=1;entryX=0.5;entryY=1;entryDx=0;entryDy=0;fontSize=16;" parent="9nH-dpEsVBnvD8MiBPRY-1" source="FskPtGiqfpP2CgFs8_vJ-6" target="FskPtGiqfpP2CgFs8_vJ-4" edge="1">
                    <mxGeometry relative="1" as="geometry"/>
                </mxCell>
                <mxCell id="FskPtGiqfpP2CgFs8_vJ-6" value="Node" style="ellipse;whiteSpace=wrap;html=1;aspect=fixed;fontSize=16;" parent="9nH-dpEsVBnvD8MiBPRY-1" vertex="1">
                    <mxGeometry x="600" y="360" width="40" height="40" as="geometry"/>
                </mxCell>
                <mxCell id="FskPtGiqfpP2CgFs8_vJ-11" style="edgeStyle=none;html=1;entryX=1;entryY=0;entryDx=0;entryDy=0;fontSize=16;" parent="9nH-dpEsVBnvD8MiBPRY-1" source="FskPtGiqfpP2CgFs8_vJ-10" target="FskPtGiqfpP2CgFs8_vJ-4" edge="1">
                    <mxGeometry relative="1" as="geometry"/>
                </mxCell>
                <mxCell id="FskPtGiqfpP2CgFs8_vJ-10" value="Colour red or green based on input satisfaction" style="ellipse;whiteSpace=wrap;html=1;fontSize=16;fillColor=#d80073;fontColor=#ffffff;strokeColor=#A50040;spacing=10;" parent="9nH-dpEsVBnvD8MiBPRY-1" vertex="1">
                    <mxGeometry x="840" y="120" width="170" height="90" as="geometry"/>
                </mxCell>
                <mxCell id="FskPtGiqfpP2CgFs8_vJ-18" style="edgeStyle=none;html=1;entryX=0.5;entryY=1;entryDx=0;entryDy=0;fontSize=16;" parent="9nH-dpEsVBnvD8MiBPRY-1" source="FskPtGiqfpP2CgFs8_vJ-13" target="FskPtGiqfpP2CgFs8_vJ-3" edge="1">
                    <mxGeometry relative="1" as="geometry"/>
                </mxCell>
                <mxCell id="FskPtGiqfpP2CgFs8_vJ-13" value="Node" style="ellipse;whiteSpace=wrap;html=1;aspect=fixed;fontSize=16;" parent="9nH-dpEsVBnvD8MiBPRY-1" vertex="1">
                    <mxGeometry x="140" y="410" width="40" height="40" as="geometry"/>
                </mxCell>
                <mxCell id="qHzJoNe9IrDefIAbrXkI-0" value="Floating Tool Bar" style="whiteSpace=wrap;html=1;fontSize=16;fillColor=#60a917;fontColor=#ffffff;strokeColor=#2D7600;" parent="9nH-dpEsVBnvD8MiBPRY-1" vertex="1">
                    <mxGeometry x="19" y="770" width="790" height="130" as="geometry"/>
                </mxCell>
                <mxCell id="qHzJoNe9IrDefIAbrXkI-1" value="Power Usage" style="whiteSpace=wrap;html=1;fontSize=16;" parent="9nH-dpEsVBnvD8MiBPRY-1" vertex="1">
                    <mxGeometry x="530" y="810" width="120" height="60" as="geometry"/>
                </mxCell>
                <mxCell id="qHzJoNe9IrDefIAbrXkI-3" style="edgeStyle=none;html=1;entryX=0.992;entryY=0.9;entryDx=0;entryDy=0;entryPerimeter=0;fontSize=16;" parent="9nH-dpEsVBnvD8MiBPRY-1" source="qHzJoNe9IrDefIAbrXkI-2" target="qHzJoNe9IrDefIAbrXkI-1" edge="1">
                    <mxGeometry relative="1" as="geometry"/>
                </mxCell>
                <mxCell id="qHzJoNe9IrDefIAbrXkI-2" value="Toggle power usage display - colour code factories and display power usage directly on factory" style="ellipse;whiteSpace=wrap;html=1;fontSize=16;fillColor=#d80073;fontColor=#ffffff;strokeColor=#A50040;spacing=10;" parent="9nH-dpEsVBnvD8MiBPRY-1" vertex="1">
                    <mxGeometry x="900" y="810" width="230" height="180" as="geometry"/>
                </mxCell>
                <mxCell id="qHzJoNe9IrDefIAbrXkI-4" value="Points generation" style="whiteSpace=wrap;html=1;fontSize=16;" parent="9nH-dpEsVBnvD8MiBPRY-1" vertex="1">
                    <mxGeometry x="220" y="810" width="120" height="60" as="geometry"/>
                </mxCell>
                <mxCell id="qHzJoNe9IrDefIAbrXkI-5" value="Factory Details&lt;br&gt;Name: editable&lt;br&gt;Inputs:&lt;br&gt;Outputs:&lt;br&gt;Power:&lt;br&gt;Building count (per type of building):&lt;br&gt;Number of building steps:&lt;br&gt;Points generated:" style="whiteSpace=wrap;html=1;fontSize=16;verticalAlign=top;" parent="9nH-dpEsVBnvD8MiBPRY-1" vertex="1">
                    <mxGeometry x="250.5" y="550" width="327" height="160" as="geometry"/>
                </mxCell>
                <mxCell id="qHzJoNe9IrDefIAbrXkI-7" style="edgeStyle=none;html=1;entryX=0;entryY=0.75;entryDx=0;entryDy=0;fontSize=16;" parent="9nH-dpEsVBnvD8MiBPRY-1" source="qHzJoNe9IrDefIAbrXkI-6" target="qHzJoNe9IrDefIAbrXkI-4" edge="1">
                    <mxGeometry relative="1" as="geometry"/>
                </mxCell>
                <mxCell id="qHzJoNe9IrDefIAbrXkI-6" value="Toggle points generation display - colour code factories and display points generation directly on factory" style="ellipse;whiteSpace=wrap;html=1;fontSize=16;fillColor=#d80073;fontColor=#ffffff;strokeColor=#A50040;spacing=10;" parent="9nH-dpEsVBnvD8MiBPRY-1" vertex="1">
                    <mxGeometry x="110" y="980" width="230" height="140" as="geometry"/>
                </mxCell>
                <mxCell id="qHzJoNe9IrDefIAbrXkI-8" value="Create Factory" style="whiteSpace=wrap;html=1;fontSize=16;" parent="9nH-dpEsVBnvD8MiBPRY-1" vertex="1">
                    <mxGeometry x="50" y="810" width="120" height="60" as="geometry"/>
                </mxCell>
                <mxCell id="qHzJoNe9IrDefIAbrXkI-9" value="Right Click context menu&lt;br&gt;Create new factory" style="whiteSpace=wrap;html=1;fontSize=16;" parent="9nH-dpEsVBnvD8MiBPRY-1" vertex="1">
                    <mxGeometry x="19" y="550" width="221" height="110" as="geometry"/>
                </mxCell>
            </root>
        </mxGraphModel>
    </diagram>
    <diagram id="ms8x9aW3rJE1oLrHMq-M" name="ProductionStep">
        <mxGraphModel dx="1558" dy="980" grid="1" gridSize="10" guides="1" tooltips="1" connect="1" arrows="1" fold="1" page="1" pageScale="1" pageWidth="827" pageHeight="1169" math="0" shadow="0">
            <root>
                <mxCell id="kdLSkWCi_CQgaJiFbi9S-0"/>
                <mxCell id="kdLSkWCi_CQgaJiFbi9S-1" parent="kdLSkWCi_CQgaJiFbi9S-0"/>
                <mxCell id="kdLSkWCi_CQgaJiFbi9S-2" value="ProductionStep" style="whiteSpace=wrap;html=1;verticalAlign=top;spacing=10;fontSize=14;" parent="kdLSkWCi_CQgaJiFbi9S-1" vertex="1">
                    <mxGeometry x="40" y="120" width="760" height="360" as="geometry"/>
                </mxCell>
                <mxCell id="kdLSkWCi_CQgaJiFbi9S-3" value="id" style="whiteSpace=wrap;html=1;fillColor=#60a917;fontColor=#ffffff;strokeColor=#2D7600;" parent="kdLSkWCi_CQgaJiFbi9S-1" vertex="1">
                    <mxGeometry x="60" y="160" width="100" height="30" as="geometry"/>
                </mxCell>
                <mxCell id="kdLSkWCi_CQgaJiFbi9S-4" value="requiredInputs" style="whiteSpace=wrap;html=1;fillColor=#60a917;fontColor=#ffffff;strokeColor=#2D7600;" parent="kdLSkWCi_CQgaJiFbi9S-1" vertex="1">
                    <mxGeometry x="-150" y="320" width="100" height="30" as="geometry"/>
                </mxCell>
                <mxCell id="kdLSkWCi_CQgaJiFbi9S-5" value="item" style="whiteSpace=wrap;html=1;fillColor=#1ba1e2;fontColor=#ffffff;strokeColor=#006EAF;" parent="kdLSkWCi_CQgaJiFbi9S-1" vertex="1">
                    <mxGeometry x="-150" y="360" width="100" height="30" as="geometry"/>
                </mxCell>
                <mxCell id="kdLSkWCi_CQgaJiFbi9S-6" value="" style="shape=cylinder3;whiteSpace=wrap;html=1;boundedLbl=1;backgroundOutline=1;size=5;" parent="kdLSkWCi_CQgaJiFbi9S-1" vertex="1">
                    <mxGeometry x="-60" y="310" width="20" height="30" as="geometry"/>
                </mxCell>
                <mxCell id="kdLSkWCi_CQgaJiFbi9S-7" value="qty" style="whiteSpace=wrap;html=1;fillColor=#1ba1e2;fontColor=#ffffff;strokeColor=#006EAF;" parent="kdLSkWCi_CQgaJiFbi9S-1" vertex="1">
                    <mxGeometry x="-150" y="400" width="100" height="30" as="geometry"/>
                </mxCell>
                <mxCell id="kdLSkWCi_CQgaJiFbi9S-10" value="suppliedInputs" style="whiteSpace=wrap;html=1;fillColor=#60a917;fontColor=#ffffff;strokeColor=#2D7600;" parent="kdLSkWCi_CQgaJiFbi9S-1" vertex="1">
                    <mxGeometry x="-710" y="355" width="100" height="30" as="geometry"/>
                </mxCell>
                <mxCell id="kdLSkWCi_CQgaJiFbi9S-11" value="" style="shape=cylinder3;whiteSpace=wrap;html=1;boundedLbl=1;backgroundOutline=1;size=5;" parent="kdLSkWCi_CQgaJiFbi9S-1" vertex="1">
                    <mxGeometry x="-620" y="345" width="20" height="30" as="geometry"/>
                </mxCell>
                <mxCell id="kdLSkWCi_CQgaJiFbi9S-19" value="recipe" style="whiteSpace=wrap;html=1;fillColor=#60a917;fontColor=#ffffff;strokeColor=#2D7600;" parent="kdLSkWCi_CQgaJiFbi9S-1" vertex="1">
                    <mxGeometry x="300" y="160" width="100" height="30" as="geometry"/>
                </mxCell>
                <mxCell id="kdLSkWCi_CQgaJiFbi9S-22" value="BuildingStep centres around a product that we wish to create.&lt;br style=&quot;font-size: 12px&quot;&gt;&lt;br style=&quot;font-size: 12px&quot;&gt;We also set the quantity we wish to produce.&lt;br style=&quot;font-size: 12px&quot;&gt;&lt;br style=&quot;font-size: 12px&quot;&gt;From the product/item we can derive appropriate recipes that output this item.&lt;br style=&quot;font-size: 12px&quot;&gt;&lt;br style=&quot;font-size: 12px&quot;&gt;From the recipe and quantity we get inputs required and by-products produced" style="ellipse;whiteSpace=wrap;html=1;fontSize=12;fillColor=#d80073;fontColor=#ffffff;strokeColor=#A50040;spacing=35;" parent="kdLSkWCi_CQgaJiFbi9S-1" vertex="1">
                    <mxGeometry x="1050" y="120" width="463" height="170" as="geometry"/>
                </mxCell>
                <mxCell id="kdLSkWCi_CQgaJiFbi9S-23" value="product" style="whiteSpace=wrap;html=1;fillColor=#60a917;fontColor=#ffffff;strokeColor=#2D7600;" parent="kdLSkWCi_CQgaJiFbi9S-1" vertex="1">
                    <mxGeometry x="420" y="160" width="100" height="30" as="geometry"/>
                </mxCell>
                <mxCell id="kdLSkWCi_CQgaJiFbi9S-24" value="byProducts" style="whiteSpace=wrap;html=1;fillColor=#60a917;fontColor=#ffffff;strokeColor=#2D7600;" parent="kdLSkWCi_CQgaJiFbi9S-1" vertex="1">
                    <mxGeometry x="-270" y="320" width="100" height="30" as="geometry"/>
                </mxCell>
                <mxCell id="kdLSkWCi_CQgaJiFbi9S-26" value="" style="shape=cylinder3;whiteSpace=wrap;html=1;boundedLbl=1;backgroundOutline=1;size=5;" parent="kdLSkWCi_CQgaJiFbi9S-1" vertex="1">
                    <mxGeometry x="-180" y="310" width="20" height="30" as="geometry"/>
                </mxCell>
                <mxCell id="kdLSkWCi_CQgaJiFbi9S-27" value="item" style="whiteSpace=wrap;html=1;fillColor=#1ba1e2;fontColor=#ffffff;strokeColor=#006EAF;" parent="kdLSkWCi_CQgaJiFbi9S-1" vertex="1">
                    <mxGeometry x="-270" y="360" width="100" height="30" as="geometry"/>
                </mxCell>
                <mxCell id="kdLSkWCi_CQgaJiFbi9S-28" value="qty" style="whiteSpace=wrap;html=1;fillColor=#1ba1e2;fontColor=#ffffff;strokeColor=#006EAF;" parent="kdLSkWCi_CQgaJiFbi9S-1" vertex="1">
                    <mxGeometry x="-270" y="400" width="100" height="30" as="geometry"/>
                </mxCell>
                <mxCell id="kdLSkWCi_CQgaJiFbi9S-30" value="outputs" style="whiteSpace=wrap;html=1;fillColor=#60a917;fontColor=#ffffff;strokeColor=#2D7600;" parent="kdLSkWCi_CQgaJiFbi9S-1" vertex="1">
                    <mxGeometry x="-450" y="60" width="100" height="30" as="geometry"/>
                </mxCell>
                <mxCell id="kdLSkWCi_CQgaJiFbi9S-31" value="" style="shape=cylinder3;whiteSpace=wrap;html=1;boundedLbl=1;backgroundOutline=1;size=5;" parent="kdLSkWCi_CQgaJiFbi9S-1" vertex="1">
                    <mxGeometry x="-360" y="50" width="20" height="30" as="geometry"/>
                </mxCell>
                <mxCell id="kdLSkWCi_CQgaJiFbi9S-32" value="item" style="whiteSpace=wrap;html=1;fillColor=#1ba1e2;fontColor=#ffffff;strokeColor=#006EAF;" parent="kdLSkWCi_CQgaJiFbi9S-1" vertex="1">
                    <mxGeometry x="-450" y="100" width="100" height="30" as="geometry"/>
                </mxCell>
                <mxCell id="kdLSkWCi_CQgaJiFbi9S-33" value="qty" style="whiteSpace=wrap;html=1;fillColor=#1ba1e2;fontColor=#ffffff;strokeColor=#006EAF;" parent="kdLSkWCi_CQgaJiFbi9S-1" vertex="1">
                    <mxGeometry x="-450" y="140" width="100" height="30" as="geometry"/>
                </mxCell>
                <mxCell id="kdLSkWCi_CQgaJiFbi9S-38" style="edgeStyle=none;html=1;entryX=1;entryY=0.5;entryDx=0;entryDy=0;fontSize=14;" parent="kdLSkWCi_CQgaJiFbi9S-1" source="kdLSkWCi_CQgaJiFbi9S-34" target="kdLSkWCi_CQgaJiFbi9S-35" edge="1">
                    <mxGeometry relative="1" as="geometry"/>
                </mxCell>
                <mxCell id="kdLSkWCi_CQgaJiFbi9S-34" value="type" style="whiteSpace=wrap;html=1;fillColor=#1ba1e2;fontColor=#ffffff;strokeColor=#006EAF;" parent="kdLSkWCi_CQgaJiFbi9S-1" vertex="1">
                    <mxGeometry x="-450" y="180" width="100" height="30" as="geometry"/>
                </mxCell>
                <mxCell id="kdLSkWCi_CQgaJiFbi9S-35" value="EXPORT" style="whiteSpace=wrap;html=1;fillColor=#a20025;fontColor=#ffffff;strokeColor=#6F0000;" parent="kdLSkWCi_CQgaJiFbi9S-1" vertex="1">
                    <mxGeometry x="-570" y="180" width="100" height="30" as="geometry"/>
                </mxCell>
                <mxCell id="kdLSkWCi_CQgaJiFbi9S-36" value="BUILDING_STEP" style="whiteSpace=wrap;html=1;fillColor=#a20025;fontColor=#ffffff;strokeColor=#6F0000;" parent="kdLSkWCi_CQgaJiFbi9S-1" vertex="1">
                    <mxGeometry x="-570" y="220" width="100" height="30" as="geometry"/>
                </mxCell>
                <mxCell id="kdLSkWCi_CQgaJiFbi9S-37" value="SINK" style="whiteSpace=wrap;html=1;fillColor=#a20025;fontColor=#ffffff;strokeColor=#6F0000;" parent="kdLSkWCi_CQgaJiFbi9S-1" vertex="1">
                    <mxGeometry x="-570" y="260" width="100" height="30" as="geometry"/>
                </mxCell>
                <mxCell id="kdLSkWCi_CQgaJiFbi9S-39" value="id" style="whiteSpace=wrap;html=1;fillColor=#1ba1e2;fontColor=#ffffff;strokeColor=#006EAF;" parent="kdLSkWCi_CQgaJiFbi9S-1" vertex="1">
                    <mxGeometry x="-450" y="220" width="100" height="30" as="geometry"/>
                </mxCell>
                <mxCell id="kdLSkWCi_CQgaJiFbi9S-42" value="item" style="whiteSpace=wrap;html=1;fillColor=#1ba1e2;fontColor=#ffffff;strokeColor=#006EAF;" parent="kdLSkWCi_CQgaJiFbi9S-1" vertex="1">
                    <mxGeometry x="420" y="200" width="100" height="30" as="geometry"/>
                </mxCell>
                <mxCell id="kdLSkWCi_CQgaJiFbi9S-43" value="amount" style="whiteSpace=wrap;html=1;fillColor=#1ba1e2;fontColor=#ffffff;strokeColor=#006EAF;" parent="kdLSkWCi_CQgaJiFbi9S-1" vertex="1">
                    <mxGeometry x="420" y="240" width="100" height="30" as="geometry"/>
                </mxCell>
                <mxCell id="kdLSkWCi_CQgaJiFbi9S-52" style="edgeStyle=none;html=1;entryX=0;entryY=0.5;entryDx=0;entryDy=0;fontSize=12;" parent="kdLSkWCi_CQgaJiFbi9S-1" source="kdLSkWCi_CQgaJiFbi9S-44" target="kdLSkWCi_CQgaJiFbi9S-47" edge="1">
                    <mxGeometry relative="1" as="geometry"/>
                </mxCell>
                <mxCell id="kdLSkWCi_CQgaJiFbi9S-44" value="type" style="whiteSpace=wrap;html=1;fillColor=#1ba1e2;fontColor=#ffffff;strokeColor=#006EAF;" parent="kdLSkWCi_CQgaJiFbi9S-1" vertex="1">
                    <mxGeometry x="-710" y="475" width="100" height="30" as="geometry"/>
                </mxCell>
                <mxCell id="kdLSkWCi_CQgaJiFbi9S-45" value="item" style="whiteSpace=wrap;html=1;fillColor=#1ba1e2;fontColor=#ffffff;strokeColor=#006EAF;" parent="kdLSkWCi_CQgaJiFbi9S-1" vertex="1">
                    <mxGeometry x="-710" y="395" width="100" height="30" as="geometry"/>
                </mxCell>
                <mxCell id="kdLSkWCi_CQgaJiFbi9S-46" value="qty" style="whiteSpace=wrap;html=1;fillColor=#1ba1e2;fontColor=#ffffff;strokeColor=#006EAF;" parent="kdLSkWCi_CQgaJiFbi9S-1" vertex="1">
                    <mxGeometry x="-710" y="435" width="100" height="30" as="geometry"/>
                </mxCell>
                <mxCell id="kdLSkWCi_CQgaJiFbi9S-47" value="IMPORT" style="whiteSpace=wrap;html=1;fillColor=#a20025;fontColor=#ffffff;strokeColor=#6F0000;" parent="kdLSkWCi_CQgaJiFbi9S-1" vertex="1">
                    <mxGeometry x="-590" y="475" width="120" height="30" as="geometry"/>
                </mxCell>
                <mxCell id="kdLSkWCi_CQgaJiFbi9S-48" value="BUILDING_STEP" style="whiteSpace=wrap;html=1;fillColor=#a20025;fontColor=#ffffff;strokeColor=#6F0000;" parent="kdLSkWCi_CQgaJiFbi9S-1" vertex="1">
                    <mxGeometry x="-590" y="515" width="120" height="30" as="geometry"/>
                </mxCell>
                <mxCell id="kdLSkWCi_CQgaJiFbi9S-51" value="id" style="whiteSpace=wrap;html=1;fillColor=#1ba1e2;fontColor=#ffffff;strokeColor=#006EAF;" parent="kdLSkWCi_CQgaJiFbi9S-1" vertex="1">
                    <mxGeometry x="-710" y="515" width="100" height="30" as="geometry"/>
                </mxCell>
                <mxCell id="kdLSkWCi_CQgaJiFbi9S-54" value="EXTRACTION_STEP" style="whiteSpace=wrap;html=1;fillColor=#a20025;fontColor=#ffffff;strokeColor=#6F0000;" parent="kdLSkWCi_CQgaJiFbi9S-1" vertex="1">
                    <mxGeometry x="-590" y="555" width="120" height="30" as="geometry"/>
                </mxCell>
                <mxCell id="pBx8MMr6PqnkeFVLXRV--0" value="buildingCount" style="whiteSpace=wrap;html=1;fillColor=#60a917;fontColor=#ffffff;strokeColor=#2D7600;" parent="kdLSkWCi_CQgaJiFbi9S-1" vertex="1">
                    <mxGeometry x="540" y="160" width="100" height="30" as="geometry"/>
                </mxCell>
                <mxCell id="pBx8MMr6PqnkeFVLXRV--2" value="View Logic" style="whiteSpace=wrap;html=1;verticalAlign=top;spacing=10;fontSize=14;" parent="kdLSkWCi_CQgaJiFbi9S-1" vertex="1">
                    <mxGeometry x="1280" y="360" width="1000" height="360" as="geometry"/>
                </mxCell>
                <mxCell id="pBx8MMr6PqnkeFVLXRV--3" value="Building Count" style="whiteSpace=wrap;html=1;fillColor=#6a00ff;fontColor=#ffffff;strokeColor=#3700CC;" parent="kdLSkWCi_CQgaJiFbi9S-1" vertex="1">
                    <mxGeometry x="1320" y="400" width="100" height="30" as="geometry"/>
                </mxCell>
                <mxCell id="pBx8MMr6PqnkeFVLXRV--17" value="" style="group" parent="kdLSkWCi_CQgaJiFbi9S-1" vertex="1" connectable="0">
                    <mxGeometry x="1440" y="400" width="680" height="80" as="geometry"/>
                </mxCell>
                <mxCell id="pBx8MMr6PqnkeFVLXRV--14" value="Math.ceil" style="whiteSpace=wrap;html=1;verticalAlign=top;spacing=10;fontSize=14;" parent="pBx8MMr6PqnkeFVLXRV--17" vertex="1">
                    <mxGeometry width="680" height="80" as="geometry"/>
                </mxCell>
                <mxCell id="pBx8MMr6PqnkeFVLXRV--8" value="product.qty" style="whiteSpace=wrap;html=1;fillColor=#60a917;fontColor=#ffffff;strokeColor=#2D7600;" parent="pBx8MMr6PqnkeFVLXRV--17" vertex="1">
                    <mxGeometry x="40" y="41.25" width="80" height="30" as="geometry"/>
                </mxCell>
                <mxCell id="pBx8MMr6PqnkeFVLXRV--9" value="recipe(find product).qty" style="whiteSpace=wrap;html=1;fillColor=#60a917;fontColor=#ffffff;strokeColor=#2D7600;" parent="pBx8MMr6PqnkeFVLXRV--17" vertex="1">
                    <mxGeometry x="260" y="40" width="140" height="30" as="geometry"/>
                </mxCell>
                <mxCell id="pBx8MMr6PqnkeFVLXRV--12" value="overclock" style="whiteSpace=wrap;html=1;fillColor=#60a917;fontColor=#ffffff;strokeColor=#2D7600;" parent="pBx8MMr6PqnkeFVLXRV--17" vertex="1">
                    <mxGeometry x="540" y="38.75" width="100" height="30" as="geometry"/>
                </mxCell>
                <mxCell id="pBx8MMr6PqnkeFVLXRV--15" value="divide by" style="shape=step;perimeter=stepPerimeter;whiteSpace=wrap;html=1;fixedSize=1;fontSize=12;" parent="pBx8MMr6PqnkeFVLXRV--17" vertex="1">
                    <mxGeometry x="140" y="41.25" width="100" height="30" as="geometry"/>
                </mxCell>
                <mxCell id="pBx8MMr6PqnkeFVLXRV--16" value="divide by" style="shape=step;perimeter=stepPerimeter;whiteSpace=wrap;html=1;fixedSize=1;fontSize=12;" parent="pBx8MMr6PqnkeFVLXRV--17" vertex="1">
                    <mxGeometry x="420" y="38.75" width="100" height="30" as="geometry"/>
                </mxCell>
                <mxCell id="pBx8MMr6PqnkeFVLXRV--18" value="Power" style="whiteSpace=wrap;html=1;fillColor=#6a00ff;fontColor=#ffffff;strokeColor=#3700CC;" parent="kdLSkWCi_CQgaJiFbi9S-1" vertex="1">
                    <mxGeometry x="1320" y="520" width="100" height="30" as="geometry"/>
                </mxCell>
                <mxCell id="pBx8MMr6PqnkeFVLXRV--19" value="" style="group" parent="kdLSkWCi_CQgaJiFbi9S-1" vertex="1" connectable="0">
                    <mxGeometry x="1440" y="520" width="680" height="80" as="geometry"/>
                </mxCell>
                <mxCell id="pBx8MMr6PqnkeFVLXRV--20" value="" style="whiteSpace=wrap;html=1;verticalAlign=top;spacing=10;fontSize=14;" parent="pBx8MMr6PqnkeFVLXRV--19" vertex="1">
                    <mxGeometry width="680" height="80" as="geometry"/>
                </mxCell>
                <mxCell id="pBx8MMr6PqnkeFVLXRV--21" value="building count integer" style="whiteSpace=wrap;html=1;fillColor=#60a917;fontColor=#ffffff;strokeColor=#2D7600;" parent="pBx8MMr6PqnkeFVLXRV--19" vertex="1">
                    <mxGeometry x="40" y="41.25" width="80" height="30" as="geometry"/>
                </mxCell>
                <mxCell id="pBx8MMr6PqnkeFVLXRV--22" value="building power" style="whiteSpace=wrap;html=1;fillColor=#60a917;fontColor=#ffffff;strokeColor=#2D7600;" parent="pBx8MMr6PqnkeFVLXRV--19" vertex="1">
                    <mxGeometry x="260" y="40" width="140" height="30" as="geometry"/>
                </mxCell>
                <mxCell id="pBx8MMr6PqnkeFVLXRV--23" value="overclock exponent factor" style="whiteSpace=wrap;html=1;fillColor=#60a917;fontColor=#ffffff;strokeColor=#2D7600;" parent="pBx8MMr6PqnkeFVLXRV--19" vertex="1">
                    <mxGeometry x="540" y="38.75" width="100" height="30" as="geometry"/>
                </mxCell>
                <mxCell id="pBx8MMr6PqnkeFVLXRV--24" value="multiplied by" style="shape=step;perimeter=stepPerimeter;whiteSpace=wrap;html=1;fixedSize=1;fontSize=12;" parent="pBx8MMr6PqnkeFVLXRV--19" vertex="1">
                    <mxGeometry x="140" y="41.25" width="100" height="30" as="geometry"/>
                </mxCell>
                <mxCell id="pBx8MMr6PqnkeFVLXRV--25" value="multiplied by" style="shape=step;perimeter=stepPerimeter;whiteSpace=wrap;html=1;fixedSize=1;fontSize=12;" parent="pBx8MMr6PqnkeFVLXRV--19" vertex="1">
                    <mxGeometry x="420" y="38.75" width="100" height="30" as="geometry"/>
                </mxCell>
                <mxCell id="IVugumdv23cOk-1889WW-0" value="factory" style="whiteSpace=wrap;html=1;fillColor=#60a917;fontColor=#ffffff;strokeColor=#2D7600;" parent="kdLSkWCi_CQgaJiFbi9S-1" vertex="1">
                    <mxGeometry x="180" y="160" width="100" height="30" as="geometry"/>
                </mxCell>
                <mxCell id="IVugumdv23cOk-1889WW-2" style="edgeStyle=none;html=1;fontSize=12;" parent="kdLSkWCi_CQgaJiFbi9S-1" source="IVugumdv23cOk-1889WW-1" target="IVugumdv23cOk-1889WW-0" edge="1">
                    <mxGeometry relative="1" as="geometry"/>
                </mxCell>
                <mxCell id="IVugumdv23cOk-1889WW-1" value="doubly linked&lt;br&gt;necessary for handling destroy function" style="ellipse;whiteSpace=wrap;html=1;fontSize=12;fillColor=#d80073;fontColor=#ffffff;strokeColor=#A50040;" parent="kdLSkWCi_CQgaJiFbi9S-1" vertex="1">
                    <mxGeometry x="165" y="230" width="130" height="70" as="geometry"/>
                </mxCell>
                <mxCell id="NQajHZobTmMUnWE5iPFy-0" value="Will need a function to compute whether OUTPUTS satisfies PRODUCT and BY_PRODUCTS" style="ellipse;whiteSpace=wrap;html=1;fontSize=12;fillColor=#d80073;fontColor=#ffffff;strokeColor=#A50040;spacing=35;" parent="kdLSkWCi_CQgaJiFbi9S-1" vertex="1">
                    <mxGeometry x="310" y="355" width="230" height="120" as="geometry"/>
                </mxCell>
                <mxCell id="0f3BatySpWuFWZM6Eazc-0" value="extract items, qty and locked properties to and edge model" style="ellipse;whiteSpace=wrap;html=1;fontSize=12;fillColor=#d80073;fontColor=#ffffff;strokeColor=#A50040;spacing=35;" parent="kdLSkWCi_CQgaJiFbi9S-1" vertex="1">
                    <mxGeometry x="660" y="567.5" width="191.5" height="135" as="geometry"/>
                </mxCell>
                <mxCell id="0f3BatySpWuFWZM6Eazc-1" value="Edge" style="whiteSpace=wrap;html=1;verticalAlign=top;spacing=10;fontSize=14;" parent="kdLSkWCi_CQgaJiFbi9S-1" vertex="1">
                    <mxGeometry x="160" y="680" width="650" height="280" as="geometry"/>
                </mxCell>
                <mxCell id="0f3BatySpWuFWZM6Eazc-2" value="input" style="whiteSpace=wrap;html=1;fillColor=#60a917;fontColor=#ffffff;strokeColor=#2D7600;" parent="kdLSkWCi_CQgaJiFbi9S-1" vertex="1">
                    <mxGeometry x="320" y="720" width="100" height="30" as="geometry"/>
                </mxCell>
                <mxCell id="0f3BatySpWuFWZM6Eazc-3" value="output" style="whiteSpace=wrap;html=1;fillColor=#60a917;fontColor=#ffffff;strokeColor=#2D7600;" parent="kdLSkWCi_CQgaJiFbi9S-1" vertex="1">
                    <mxGeometry x="440" y="720" width="100" height="30" as="geometry"/>
                </mxCell>
                <mxCell id="0f3BatySpWuFWZM6Eazc-4" value="amount" style="whiteSpace=wrap;html=1;fillColor=#60a917;fontColor=#ffffff;strokeColor=#2D7600;" parent="kdLSkWCi_CQgaJiFbi9S-1" vertex="1">
                    <mxGeometry x="560" y="720" width="100" height="30" as="geometry"/>
                </mxCell>
                <mxCell id="0f3BatySpWuFWZM6Eazc-5" value="id" style="whiteSpace=wrap;html=1;fillColor=#60a917;fontColor=#ffffff;strokeColor=#2D7600;" parent="kdLSkWCi_CQgaJiFbi9S-1" vertex="1">
                    <mxGeometry x="200" y="720" width="100" height="30" as="geometry"/>
                </mxCell>
                <mxCell id="0f3BatySpWuFWZM6Eazc-6" value="dependant" style="whiteSpace=wrap;html=1;fillColor=#60a917;fontColor=#ffffff;strokeColor=#2D7600;" parent="kdLSkWCi_CQgaJiFbi9S-1" vertex="1">
                    <mxGeometry x="680" y="720" width="100" height="30" as="geometry"/>
                </mxCell>
                <mxCell id="0f3BatySpWuFWZM6Eazc-7" value="lets create a directional edge, eg, input depends on output, or vice-versa" style="ellipse;whiteSpace=wrap;html=1;fontSize=12;fillColor=#d80073;fontColor=#ffffff;strokeColor=#A50040;spacing=35;" parent="kdLSkWCi_CQgaJiFbi9S-1" vertex="1">
                    <mxGeometry x="800" y="640" width="191.5" height="135" as="geometry"/>
                </mxCell>
                <mxCell id="0f3BatySpWuFWZM6Eazc-8" value="edges" style="whiteSpace=wrap;html=1;fillColor=#60a917;fontColor=#ffffff;strokeColor=#2D7600;" parent="kdLSkWCi_CQgaJiFbi9S-1" vertex="1">
                    <mxGeometry x="660" y="160" width="100" height="30" as="geometry"/>
                </mxCell>
                <mxCell id="0f3BatySpWuFWZM6Eazc-9" value="" style="shape=cylinder3;whiteSpace=wrap;html=1;boundedLbl=1;backgroundOutline=1;size=5;" parent="kdLSkWCi_CQgaJiFbi9S-1" vertex="1">
                    <mxGeometry x="750" y="150" width="20" height="30" as="geometry"/>
                </mxCell>
                <mxCell id="0f3BatySpWuFWZM6Eazc-10" value="id" style="whiteSpace=wrap;html=1;fillColor=#1ba1e2;fontColor=#ffffff;strokeColor=#006EAF;" parent="kdLSkWCi_CQgaJiFbi9S-1" vertex="1">
                    <mxGeometry x="660" y="200" width="100" height="30" as="geometry"/>
                </mxCell>
                <mxCell id="Xzqxgzjzq0KtoCy0EB3C-1" style="edgeStyle=none;html=1;entryX=0.5;entryY=1;entryDx=0;entryDy=0;" edge="1" parent="kdLSkWCi_CQgaJiFbi9S-1" source="Xzqxgzjzq0KtoCy0EB3C-0" target="pBx8MMr6PqnkeFVLXRV--0">
                    <mxGeometry relative="1" as="geometry"/>
                </mxCell>
                <mxCell id="Xzqxgzjzq0KtoCy0EB3C-0" value="integer - overclock % can be calculated from this using recipe and product.amount" style="ellipse;whiteSpace=wrap;html=1;fontSize=12;fillColor=#d80073;fontColor=#ffffff;strokeColor=#A50040;spacing=35;" vertex="1" parent="kdLSkWCi_CQgaJiFbi9S-1">
                    <mxGeometry x="520" y="237.5" width="185" height="82.5" as="geometry"/>
                </mxCell>
                <mxCell id="Xzqxgzjzq0KtoCy0EB3C-2" value="calculating on the fly for the time being until there is a real need to store this data" style="ellipse;whiteSpace=wrap;html=1;fontSize=12;fillColor=#d80073;fontColor=#ffffff;strokeColor=#A50040;" vertex="1" parent="kdLSkWCi_CQgaJiFbi9S-1">
                    <mxGeometry x="-260" y="443.75" width="200" height="92.5" as="geometry"/>
                </mxCell>
                <mxCell id="Xzqxgzjzq0KtoCy0EB3C-4" style="edgeStyle=none;html=1;entryX=1;entryY=0;entryDx=0;entryDy=20;entryPerimeter=0;" edge="1" parent="kdLSkWCi_CQgaJiFbi9S-1" source="Xzqxgzjzq0KtoCy0EB3C-3" target="kdLSkWCi_CQgaJiFbi9S-11">
                    <mxGeometry relative="1" as="geometry"/>
                </mxCell>
                <mxCell id="Xzqxgzjzq0KtoCy0EB3C-5" style="edgeStyle=none;html=1;entryX=0.25;entryY=1;entryDx=0;entryDy=0;" edge="1" parent="kdLSkWCi_CQgaJiFbi9S-1" source="Xzqxgzjzq0KtoCy0EB3C-3" target="kdLSkWCi_CQgaJiFbi9S-39">
                    <mxGeometry relative="1" as="geometry"/>
                </mxCell>
                <mxCell id="Xzqxgzjzq0KtoCy0EB3C-3" value="this is being handled by edges" style="ellipse;whiteSpace=wrap;html=1;fontSize=12;fillColor=#d80073;fontColor=#ffffff;strokeColor=#A50040;" vertex="1" parent="kdLSkWCi_CQgaJiFbi9S-1">
                    <mxGeometry x="-530" y="305" width="160" height="60" as="geometry"/>
                </mxCell>
            </root>
        </mxGraphModel>
    </diagram>
    <diagram name="GenerationStep" id="vUMt9cQoyoOxv-ye0FRi">
        <mxGraphModel dx="731" dy="980" grid="1" gridSize="10" guides="1" tooltips="1" connect="1" arrows="1" fold="1" page="1" pageScale="1" pageWidth="827" pageHeight="1169" math="0" shadow="0">
            <root>
                <mxCell id="FJLcmf4DIqrqWx-N1I-6-0"/>
                <mxCell id="FJLcmf4DIqrqWx-N1I-6-1" parent="FJLcmf4DIqrqWx-N1I-6-0"/>
                <mxCell id="FJLcmf4DIqrqWx-N1I-6-2" value="GenerationStep" style="whiteSpace=wrap;html=1;verticalAlign=top;spacing=10;fontSize=14;" parent="FJLcmf4DIqrqWx-N1I-6-1" vertex="1">
                    <mxGeometry x="40" y="120" width="1000" height="360" as="geometry"/>
                </mxCell>
                <mxCell id="FJLcmf4DIqrqWx-N1I-6-3" value="id" style="whiteSpace=wrap;html=1;fillColor=#60a917;fontColor=#ffffff;strokeColor=#2D7600;" parent="FJLcmf4DIqrqWx-N1I-6-1" vertex="1">
                    <mxGeometry x="60" y="160" width="100" height="30" as="geometry"/>
                </mxCell>
                <mxCell id="FJLcmf4DIqrqWx-N1I-6-4" value="requiredInputs" style="whiteSpace=wrap;html=1;fillColor=#60a917;fontColor=#ffffff;strokeColor=#2D7600;" parent="FJLcmf4DIqrqWx-N1I-6-1" vertex="1">
                    <mxGeometry x="660" y="160" width="100" height="30" as="geometry"/>
                </mxCell>
                <mxCell id="FJLcmf4DIqrqWx-N1I-6-5" value="item" style="whiteSpace=wrap;html=1;fillColor=#1ba1e2;fontColor=#ffffff;strokeColor=#006EAF;" parent="FJLcmf4DIqrqWx-N1I-6-1" vertex="1">
                    <mxGeometry x="660" y="200" width="100" height="30" as="geometry"/>
                </mxCell>
                <mxCell id="FJLcmf4DIqrqWx-N1I-6-6" value="" style="shape=cylinder3;whiteSpace=wrap;html=1;boundedLbl=1;backgroundOutline=1;size=5;" parent="FJLcmf4DIqrqWx-N1I-6-1" vertex="1">
                    <mxGeometry x="750" y="150" width="20" height="30" as="geometry"/>
                </mxCell>
                <mxCell id="FJLcmf4DIqrqWx-N1I-6-7" value="qty" style="whiteSpace=wrap;html=1;fillColor=#1ba1e2;fontColor=#ffffff;strokeColor=#006EAF;" parent="FJLcmf4DIqrqWx-N1I-6-1" vertex="1">
                    <mxGeometry x="660" y="240" width="100" height="30" as="geometry"/>
                </mxCell>
                <mxCell id="FJLcmf4DIqrqWx-N1I-6-8" value="suppliedInputs" style="whiteSpace=wrap;html=1;fillColor=#60a917;fontColor=#ffffff;strokeColor=#2D7600;" parent="FJLcmf4DIqrqWx-N1I-6-1" vertex="1">
                    <mxGeometry x="780" y="160" width="100" height="30" as="geometry"/>
                </mxCell>
                <mxCell id="FJLcmf4DIqrqWx-N1I-6-9" value="" style="shape=cylinder3;whiteSpace=wrap;html=1;boundedLbl=1;backgroundOutline=1;size=5;" parent="FJLcmf4DIqrqWx-N1I-6-1" vertex="1">
                    <mxGeometry x="870" y="150" width="20" height="30" as="geometry"/>
                </mxCell>
                <mxCell id="FJLcmf4DIqrqWx-N1I-6-10" value="recipe" style="whiteSpace=wrap;html=1;fillColor=#60a917;fontColor=#ffffff;strokeColor=#2D7600;" parent="FJLcmf4DIqrqWx-N1I-6-1" vertex="1">
                    <mxGeometry x="300" y="160" width="100" height="30" as="geometry"/>
                </mxCell>
                <mxCell id="FJLcmf4DIqrqWx-N1I-6-11" value="BuildingStep centres around a product that we wish to create.&lt;br style=&quot;font-size: 12px&quot;&gt;&lt;br style=&quot;font-size: 12px&quot;&gt;We also set the quantity we wish to produce.&lt;br style=&quot;font-size: 12px&quot;&gt;&lt;br style=&quot;font-size: 12px&quot;&gt;From the product/item we can derive appropriate recipes that output this item.&lt;br style=&quot;font-size: 12px&quot;&gt;&lt;br style=&quot;font-size: 12px&quot;&gt;From the recipe and quantity we get inputs required and by-products produced" style="ellipse;whiteSpace=wrap;html=1;fontSize=12;fillColor=#d80073;fontColor=#ffffff;strokeColor=#A50040;spacing=35;" parent="FJLcmf4DIqrqWx-N1I-6-1" vertex="1">
                    <mxGeometry x="1050" y="120" width="463" height="170" as="geometry"/>
                </mxCell>
                <mxCell id="FJLcmf4DIqrqWx-N1I-6-13" value="byProducts" style="whiteSpace=wrap;html=1;fillColor=#60a917;fontColor=#ffffff;strokeColor=#2D7600;" parent="FJLcmf4DIqrqWx-N1I-6-1" vertex="1">
                    <mxGeometry x="540" y="160" width="100" height="30" as="geometry"/>
                </mxCell>
                <mxCell id="FJLcmf4DIqrqWx-N1I-6-14" value="" style="shape=cylinder3;whiteSpace=wrap;html=1;boundedLbl=1;backgroundOutline=1;size=5;" parent="FJLcmf4DIqrqWx-N1I-6-1" vertex="1">
                    <mxGeometry x="630" y="150" width="20" height="30" as="geometry"/>
                </mxCell>
                <mxCell id="FJLcmf4DIqrqWx-N1I-6-15" value="item" style="whiteSpace=wrap;html=1;fillColor=#1ba1e2;fontColor=#ffffff;strokeColor=#006EAF;" parent="FJLcmf4DIqrqWx-N1I-6-1" vertex="1">
                    <mxGeometry x="540" y="200" width="100" height="30" as="geometry"/>
                </mxCell>
                <mxCell id="FJLcmf4DIqrqWx-N1I-6-16" value="qty" style="whiteSpace=wrap;html=1;fillColor=#1ba1e2;fontColor=#ffffff;strokeColor=#006EAF;" parent="FJLcmf4DIqrqWx-N1I-6-1" vertex="1">
                    <mxGeometry x="540" y="240" width="100" height="30" as="geometry"/>
                </mxCell>
                <mxCell id="FJLcmf4DIqrqWx-N1I-6-17" value="outputs" style="whiteSpace=wrap;html=1;fillColor=#60a917;fontColor=#ffffff;strokeColor=#2D7600;" parent="FJLcmf4DIqrqWx-N1I-6-1" vertex="1">
                    <mxGeometry x="420" y="160" width="100" height="30" as="geometry"/>
                </mxCell>
                <mxCell id="FJLcmf4DIqrqWx-N1I-6-18" value="" style="shape=cylinder3;whiteSpace=wrap;html=1;boundedLbl=1;backgroundOutline=1;size=5;" parent="FJLcmf4DIqrqWx-N1I-6-1" vertex="1">
                    <mxGeometry x="510" y="150" width="20" height="30" as="geometry"/>
                </mxCell>
                <mxCell id="FJLcmf4DIqrqWx-N1I-6-19" value="item" style="whiteSpace=wrap;html=1;fillColor=#1ba1e2;fontColor=#ffffff;strokeColor=#006EAF;" parent="FJLcmf4DIqrqWx-N1I-6-1" vertex="1">
                    <mxGeometry x="420" y="200" width="100" height="30" as="geometry"/>
                </mxCell>
                <mxCell id="FJLcmf4DIqrqWx-N1I-6-20" value="qty" style="whiteSpace=wrap;html=1;fillColor=#1ba1e2;fontColor=#ffffff;strokeColor=#006EAF;" parent="FJLcmf4DIqrqWx-N1I-6-1" vertex="1">
                    <mxGeometry x="420" y="240" width="100" height="30" as="geometry"/>
                </mxCell>
                <mxCell id="FJLcmf4DIqrqWx-N1I-6-21" style="edgeStyle=none;html=1;entryX=1;entryY=0.5;entryDx=0;entryDy=0;fontSize=14;" parent="FJLcmf4DIqrqWx-N1I-6-1" source="FJLcmf4DIqrqWx-N1I-6-22" target="FJLcmf4DIqrqWx-N1I-6-23" edge="1">
                    <mxGeometry relative="1" as="geometry"/>
                </mxCell>
                <mxCell id="FJLcmf4DIqrqWx-N1I-6-22" value="type" style="whiteSpace=wrap;html=1;fillColor=#1ba1e2;fontColor=#ffffff;strokeColor=#006EAF;" parent="FJLcmf4DIqrqWx-N1I-6-1" vertex="1">
                    <mxGeometry x="420" y="280" width="100" height="30" as="geometry"/>
                </mxCell>
                <mxCell id="FJLcmf4DIqrqWx-N1I-6-23" value="EXPORT" style="whiteSpace=wrap;html=1;fillColor=#a20025;fontColor=#ffffff;strokeColor=#6F0000;" parent="FJLcmf4DIqrqWx-N1I-6-1" vertex="1">
                    <mxGeometry x="300" y="280" width="100" height="30" as="geometry"/>
                </mxCell>
                <mxCell id="FJLcmf4DIqrqWx-N1I-6-24" value="BUILDING_STEP" style="whiteSpace=wrap;html=1;fillColor=#a20025;fontColor=#ffffff;strokeColor=#6F0000;" parent="FJLcmf4DIqrqWx-N1I-6-1" vertex="1">
                    <mxGeometry x="300" y="320" width="100" height="30" as="geometry"/>
                </mxCell>
                <mxCell id="FJLcmf4DIqrqWx-N1I-6-25" value="SINK" style="whiteSpace=wrap;html=1;fillColor=#a20025;fontColor=#ffffff;strokeColor=#6F0000;" parent="FJLcmf4DIqrqWx-N1I-6-1" vertex="1">
                    <mxGeometry x="300" y="360" width="100" height="30" as="geometry"/>
                </mxCell>
                <mxCell id="FJLcmf4DIqrqWx-N1I-6-26" style="edgeStyle=none;html=1;entryX=0;entryY=0.5;entryDx=0;entryDy=0;fontSize=14;exitX=1;exitY=0.5;exitDx=0;exitDy=0;" parent="FJLcmf4DIqrqWx-N1I-6-1" source="FJLcmf4DIqrqWx-N1I-6-20" target="FJLcmf4DIqrqWx-N1I-6-28" edge="1">
                    <mxGeometry relative="1" as="geometry"/>
                </mxCell>
                <mxCell id="FJLcmf4DIqrqWx-N1I-6-27" value="id" style="whiteSpace=wrap;html=1;fillColor=#1ba1e2;fontColor=#ffffff;strokeColor=#006EAF;" parent="FJLcmf4DIqrqWx-N1I-6-1" vertex="1">
                    <mxGeometry x="420" y="320" width="100" height="30" as="geometry"/>
                </mxCell>
                <mxCell id="FJLcmf4DIqrqWx-N1I-6-28" value="synchronise QTY or pick one to be single source of truth?" style="ellipse;whiteSpace=wrap;html=1;fontSize=12;fillColor=#d80073;fontColor=#ffffff;strokeColor=#A50040;" parent="FJLcmf4DIqrqWx-N1I-6-1" vertex="1">
                    <mxGeometry x="580" y="360" width="160" height="70" as="geometry"/>
                </mxCell>
                <mxCell id="FJLcmf4DIqrqWx-N1I-6-31" style="edgeStyle=none;html=1;entryX=0;entryY=0.5;entryDx=0;entryDy=0;fontSize=12;" parent="FJLcmf4DIqrqWx-N1I-6-1" source="FJLcmf4DIqrqWx-N1I-6-32" target="FJLcmf4DIqrqWx-N1I-6-35" edge="1">
                    <mxGeometry relative="1" as="geometry"/>
                </mxCell>
                <mxCell id="FJLcmf4DIqrqWx-N1I-6-32" value="type" style="whiteSpace=wrap;html=1;fillColor=#1ba1e2;fontColor=#ffffff;strokeColor=#006EAF;" parent="FJLcmf4DIqrqWx-N1I-6-1" vertex="1">
                    <mxGeometry x="780" y="280" width="100" height="30" as="geometry"/>
                </mxCell>
                <mxCell id="FJLcmf4DIqrqWx-N1I-6-33" value="item" style="whiteSpace=wrap;html=1;fillColor=#1ba1e2;fontColor=#ffffff;strokeColor=#006EAF;" parent="FJLcmf4DIqrqWx-N1I-6-1" vertex="1">
                    <mxGeometry x="780" y="200" width="100" height="30" as="geometry"/>
                </mxCell>
                <mxCell id="FJLcmf4DIqrqWx-N1I-6-34" value="qty" style="whiteSpace=wrap;html=1;fillColor=#1ba1e2;fontColor=#ffffff;strokeColor=#006EAF;" parent="FJLcmf4DIqrqWx-N1I-6-1" vertex="1">
                    <mxGeometry x="780" y="240" width="100" height="30" as="geometry"/>
                </mxCell>
                <mxCell id="FJLcmf4DIqrqWx-N1I-6-35" value="IMPORT" style="whiteSpace=wrap;html=1;fillColor=#a20025;fontColor=#ffffff;strokeColor=#6F0000;" parent="FJLcmf4DIqrqWx-N1I-6-1" vertex="1">
                    <mxGeometry x="900" y="280" width="120" height="30" as="geometry"/>
                </mxCell>
                <mxCell id="FJLcmf4DIqrqWx-N1I-6-36" value="BUILDING_STEP" style="whiteSpace=wrap;html=1;fillColor=#a20025;fontColor=#ffffff;strokeColor=#6F0000;" parent="FJLcmf4DIqrqWx-N1I-6-1" vertex="1">
                    <mxGeometry x="900" y="320" width="120" height="30" as="geometry"/>
                </mxCell>
                <mxCell id="FJLcmf4DIqrqWx-N1I-6-37" style="edgeStyle=none;html=1;entryX=1;entryY=0.5;entryDx=0;entryDy=0;fontSize=12;exitX=0;exitY=0.5;exitDx=0;exitDy=0;" parent="FJLcmf4DIqrqWx-N1I-6-1" source="FJLcmf4DIqrqWx-N1I-6-34" target="FJLcmf4DIqrqWx-N1I-6-28" edge="1">
                    <mxGeometry relative="1" as="geometry"/>
                </mxCell>
                <mxCell id="FJLcmf4DIqrqWx-N1I-6-38" value="id" style="whiteSpace=wrap;html=1;fillColor=#1ba1e2;fontColor=#ffffff;strokeColor=#006EAF;" parent="FJLcmf4DIqrqWx-N1I-6-1" vertex="1">
                    <mxGeometry x="780" y="320" width="100" height="30" as="geometry"/>
                </mxCell>
                <mxCell id="FJLcmf4DIqrqWx-N1I-6-39" value="EXTRACTION_STEP" style="whiteSpace=wrap;html=1;fillColor=#a20025;fontColor=#ffffff;strokeColor=#6F0000;" parent="FJLcmf4DIqrqWx-N1I-6-1" vertex="1">
                    <mxGeometry x="900" y="360" width="120" height="30" as="geometry"/>
                </mxCell>
                <mxCell id="FJLcmf4DIqrqWx-N1I-6-40" value="overclock" style="whiteSpace=wrap;html=1;fillColor=#60a917;fontColor=#ffffff;strokeColor=#2D7600;" parent="FJLcmf4DIqrqWx-N1I-6-1" vertex="1">
                    <mxGeometry x="900" y="160" width="100" height="30" as="geometry"/>
                </mxCell>
                <mxCell id="FJLcmf4DIqrqWx-N1I-6-41" value="View Logic" style="whiteSpace=wrap;html=1;verticalAlign=top;spacing=10;fontSize=14;" parent="FJLcmf4DIqrqWx-N1I-6-1" vertex="1">
                    <mxGeometry x="1280" y="360" width="1000" height="360" as="geometry"/>
                </mxCell>
                <mxCell id="FJLcmf4DIqrqWx-N1I-6-42" value="Building Count" style="whiteSpace=wrap;html=1;fillColor=#6a00ff;fontColor=#ffffff;strokeColor=#3700CC;" parent="FJLcmf4DIqrqWx-N1I-6-1" vertex="1">
                    <mxGeometry x="1320" y="400" width="100" height="30" as="geometry"/>
                </mxCell>
                <mxCell id="FJLcmf4DIqrqWx-N1I-6-43" value="" style="group" parent="FJLcmf4DIqrqWx-N1I-6-1" vertex="1" connectable="0">
                    <mxGeometry x="1440" y="400" width="680" height="80" as="geometry"/>
                </mxCell>
                <mxCell id="FJLcmf4DIqrqWx-N1I-6-44" value="Math.ceil" style="whiteSpace=wrap;html=1;verticalAlign=top;spacing=10;fontSize=14;" parent="FJLcmf4DIqrqWx-N1I-6-43" vertex="1">
                    <mxGeometry width="680" height="80" as="geometry"/>
                </mxCell>
                <mxCell id="FJLcmf4DIqrqWx-N1I-6-45" value="product.qty" style="whiteSpace=wrap;html=1;fillColor=#60a917;fontColor=#ffffff;strokeColor=#2D7600;" parent="FJLcmf4DIqrqWx-N1I-6-43" vertex="1">
                    <mxGeometry x="40" y="41.25" width="80" height="30" as="geometry"/>
                </mxCell>
                <mxCell id="FJLcmf4DIqrqWx-N1I-6-46" value="recipe(find product).qty" style="whiteSpace=wrap;html=1;fillColor=#60a917;fontColor=#ffffff;strokeColor=#2D7600;" parent="FJLcmf4DIqrqWx-N1I-6-43" vertex="1">
                    <mxGeometry x="260" y="40" width="140" height="30" as="geometry"/>
                </mxCell>
                <mxCell id="FJLcmf4DIqrqWx-N1I-6-47" value="overclock" style="whiteSpace=wrap;html=1;fillColor=#60a917;fontColor=#ffffff;strokeColor=#2D7600;" parent="FJLcmf4DIqrqWx-N1I-6-43" vertex="1">
                    <mxGeometry x="540" y="38.75" width="100" height="30" as="geometry"/>
                </mxCell>
                <mxCell id="FJLcmf4DIqrqWx-N1I-6-48" value="divide by" style="shape=step;perimeter=stepPerimeter;whiteSpace=wrap;html=1;fixedSize=1;fontSize=12;" parent="FJLcmf4DIqrqWx-N1I-6-43" vertex="1">
                    <mxGeometry x="140" y="41.25" width="100" height="30" as="geometry"/>
                </mxCell>
                <mxCell id="FJLcmf4DIqrqWx-N1I-6-49" value="divide by" style="shape=step;perimeter=stepPerimeter;whiteSpace=wrap;html=1;fixedSize=1;fontSize=12;" parent="FJLcmf4DIqrqWx-N1I-6-43" vertex="1">
                    <mxGeometry x="420" y="38.75" width="100" height="30" as="geometry"/>
                </mxCell>
                <mxCell id="FJLcmf4DIqrqWx-N1I-6-50" value="Power" style="whiteSpace=wrap;html=1;fillColor=#6a00ff;fontColor=#ffffff;strokeColor=#3700CC;" parent="FJLcmf4DIqrqWx-N1I-6-1" vertex="1">
                    <mxGeometry x="1320" y="520" width="100" height="30" as="geometry"/>
                </mxCell>
                <mxCell id="FJLcmf4DIqrqWx-N1I-6-51" value="" style="group" parent="FJLcmf4DIqrqWx-N1I-6-1" vertex="1" connectable="0">
                    <mxGeometry x="1440" y="520" width="680" height="80" as="geometry"/>
                </mxCell>
                <mxCell id="FJLcmf4DIqrqWx-N1I-6-52" value="" style="whiteSpace=wrap;html=1;verticalAlign=top;spacing=10;fontSize=14;" parent="FJLcmf4DIqrqWx-N1I-6-51" vertex="1">
                    <mxGeometry width="680" height="80" as="geometry"/>
                </mxCell>
                <mxCell id="FJLcmf4DIqrqWx-N1I-6-53" value="building count integer" style="whiteSpace=wrap;html=1;fillColor=#60a917;fontColor=#ffffff;strokeColor=#2D7600;" parent="FJLcmf4DIqrqWx-N1I-6-51" vertex="1">
                    <mxGeometry x="40" y="41.25" width="80" height="30" as="geometry"/>
                </mxCell>
                <mxCell id="FJLcmf4DIqrqWx-N1I-6-54" value="building power" style="whiteSpace=wrap;html=1;fillColor=#60a917;fontColor=#ffffff;strokeColor=#2D7600;" parent="FJLcmf4DIqrqWx-N1I-6-51" vertex="1">
                    <mxGeometry x="260" y="40" width="140" height="30" as="geometry"/>
                </mxCell>
                <mxCell id="FJLcmf4DIqrqWx-N1I-6-55" value="overclock exponent factor" style="whiteSpace=wrap;html=1;fillColor=#60a917;fontColor=#ffffff;strokeColor=#2D7600;" parent="FJLcmf4DIqrqWx-N1I-6-51" vertex="1">
                    <mxGeometry x="540" y="38.75" width="100" height="30" as="geometry"/>
                </mxCell>
                <mxCell id="FJLcmf4DIqrqWx-N1I-6-56" value="multiplied by" style="shape=step;perimeter=stepPerimeter;whiteSpace=wrap;html=1;fixedSize=1;fontSize=12;" parent="FJLcmf4DIqrqWx-N1I-6-51" vertex="1">
                    <mxGeometry x="140" y="41.25" width="100" height="30" as="geometry"/>
                </mxCell>
                <mxCell id="FJLcmf4DIqrqWx-N1I-6-57" value="multiplied by" style="shape=step;perimeter=stepPerimeter;whiteSpace=wrap;html=1;fixedSize=1;fontSize=12;" parent="FJLcmf4DIqrqWx-N1I-6-51" vertex="1">
                    <mxGeometry x="420" y="38.75" width="100" height="30" as="geometry"/>
                </mxCell>
                <mxCell id="FJLcmf4DIqrqWx-N1I-6-58" value="factory" style="whiteSpace=wrap;html=1;fillColor=#60a917;fontColor=#ffffff;strokeColor=#2D7600;" parent="FJLcmf4DIqrqWx-N1I-6-1" vertex="1">
                    <mxGeometry x="60" y="200" width="100" height="30" as="geometry"/>
                </mxCell>
                <mxCell id="FJLcmf4DIqrqWx-N1I-6-59" style="edgeStyle=none;html=1;fontSize=12;" parent="FJLcmf4DIqrqWx-N1I-6-1" source="FJLcmf4DIqrqWx-N1I-6-60" target="FJLcmf4DIqrqWx-N1I-6-58" edge="1">
                    <mxGeometry relative="1" as="geometry"/>
                </mxCell>
                <mxCell id="FJLcmf4DIqrqWx-N1I-6-60" value="doubly linked?" style="ellipse;whiteSpace=wrap;html=1;fontSize=12;fillColor=#d80073;fontColor=#ffffff;strokeColor=#A50040;" parent="FJLcmf4DIqrqWx-N1I-6-1" vertex="1">
                    <mxGeometry x="60" y="270" width="100" height="50" as="geometry"/>
                </mxCell>
                <mxCell id="FJLcmf4DIqrqWx-N1I-6-61" value="Will need a function to compute whether OUTPUTS satisfies PRODUCT and BY_PRODUCTS" style="ellipse;whiteSpace=wrap;html=1;fontSize=12;fillColor=#d80073;fontColor=#ffffff;strokeColor=#A50040;spacing=35;" parent="FJLcmf4DIqrqWx-N1I-6-1" vertex="1">
                    <mxGeometry x="250" y="460" width="230" height="120" as="geometry"/>
                </mxCell>
                <mxCell id="imXrpF8Dl6o2vROQ5Ax--0" value="GenerationStep focusses on an energy amount to produce.&lt;br&gt;&lt;br&gt;It follows the same recipe structure as building steps, only it doesn't have a PRODUCT produced, but BY_PRODUCTS are still applicable.&lt;br&gt;&lt;br&gt;" style="ellipse;whiteSpace=wrap;html=1;fontSize=12;fillColor=#d80073;fontColor=#ffffff;strokeColor=#A50040;spacing=35;" parent="FJLcmf4DIqrqWx-N1I-6-1" vertex="1">
                    <mxGeometry x="1513" y="160" width="463" height="170" as="geometry"/>
                </mxCell>
                <mxCell id="imXrpF8Dl6o2vROQ5Ax--1" value="powerGeneration" style="whiteSpace=wrap;html=1;fillColor=#60a917;fontColor=#ffffff;strokeColor=#2D7600;" parent="FJLcmf4DIqrqWx-N1I-6-1" vertex="1">
                    <mxGeometry x="180" y="160" width="100" height="30" as="geometry"/>
                </mxCell>
                <mxCell id="imXrpF8Dl6o2vROQ5Ax--2" value="type" style="whiteSpace=wrap;html=1;fillColor=#60a917;fontColor=#ffffff;strokeColor=#2D7600;" parent="FJLcmf4DIqrqWx-N1I-6-1" vertex="1">
                    <mxGeometry x="180" y="200" width="100" height="30" as="geometry"/>
                </mxCell>
                <mxCell id="imXrpF8Dl6o2vROQ5Ax--3" value="FUEL" style="whiteSpace=wrap;html=1;fillColor=#a20025;fontColor=#ffffff;strokeColor=#6F0000;" parent="FJLcmf4DIqrqWx-N1I-6-1" vertex="1">
                    <mxGeometry x="180" y="280" width="100" height="30" as="geometry"/>
                </mxCell>
                <mxCell id="imXrpF8Dl6o2vROQ5Ax--4" value="NUCLEAR" style="whiteSpace=wrap;html=1;fillColor=#a20025;fontColor=#ffffff;strokeColor=#6F0000;" parent="FJLcmf4DIqrqWx-N1I-6-1" vertex="1">
                    <mxGeometry x="180" y="320" width="100" height="30" as="geometry"/>
                </mxCell>
                <mxCell id="imXrpF8Dl6o2vROQ5Ax--5" value="COAL" style="whiteSpace=wrap;html=1;fillColor=#a20025;fontColor=#ffffff;strokeColor=#6F0000;" parent="FJLcmf4DIqrqWx-N1I-6-1" vertex="1">
                    <mxGeometry x="180" y="240" width="100" height="30" as="geometry"/>
                </mxCell>
            </root>
        </mxGraphModel>
    </diagram>
    <diagram name="ExtractionStep" id="3So1xdNDlctDzQ3mDdGh">
        <mxGraphModel dx="3401" dy="848" grid="1" gridSize="10" guides="1" tooltips="1" connect="1" arrows="1" fold="1" page="1" pageScale="1" pageWidth="827" pageHeight="1169" math="0" shadow="0">
            <root>
                <mxCell id="TBr5G2aEh6_7rcCmTg9J-0"/>
                <mxCell id="TBr5G2aEh6_7rcCmTg9J-1" parent="TBr5G2aEh6_7rcCmTg9J-0"/>
                <mxCell id="TBr5G2aEh6_7rcCmTg9J-11" value="Extraction provides a connection between a Factory and a Node.&lt;br&gt;&lt;br&gt;Extraction needs a resource and an amount. Inputs must be supplied from a Node.&amp;nbsp;&lt;br&gt;&lt;br&gt;Each node will be responsible for what extractor and shards are supplied" style="ellipse;whiteSpace=wrap;html=1;fontSize=12;fillColor=#d80073;fontColor=#ffffff;strokeColor=#A50040;spacing=35;" parent="TBr5G2aEh6_7rcCmTg9J-1" vertex="1">
                    <mxGeometry x="720" y="80" width="463" height="170" as="geometry"/>
                </mxCell>
                <mxCell id="g5pNMoLmMVu-wYqBh1As-0" value="ExtractionStep" style="whiteSpace=wrap;html=1;verticalAlign=top;spacing=10;fontSize=14;" parent="TBr5G2aEh6_7rcCmTg9J-1" vertex="1">
                    <mxGeometry x="-80" y="80" width="760" height="360" as="geometry"/>
                </mxCell>
                <mxCell id="g5pNMoLmMVu-wYqBh1As-1" value="factory" style="whiteSpace=wrap;html=1;fillColor=#60a917;fontColor=#ffffff;strokeColor=#2D7600;" parent="TBr5G2aEh6_7rcCmTg9J-1" vertex="1">
                    <mxGeometry x="60" y="120" width="100" height="30" as="geometry"/>
                </mxCell>
                <mxCell id="g5pNMoLmMVu-wYqBh1As-2" value="type" style="whiteSpace=wrap;html=1;fillColor=#60a917;fontColor=#ffffff;strokeColor=#2D7600;" parent="TBr5G2aEh6_7rcCmTg9J-1" vertex="1">
                    <mxGeometry x="180" y="120" width="100" height="30" as="geometry"/>
                </mxCell>
                <mxCell id="g5pNMoLmMVu-wYqBh1As-3" value="EXTRACTION" style="whiteSpace=wrap;html=1;fillColor=#a20025;fontColor=#ffffff;strokeColor=#6F0000;" parent="TBr5G2aEh6_7rcCmTg9J-1" vertex="1">
                    <mxGeometry x="180" y="160" width="100" height="30" as="geometry"/>
                </mxCell>
                <mxCell id="g5pNMoLmMVu-wYqBh1As-4" value="product" style="whiteSpace=wrap;html=1;fillColor=#60a917;fontColor=#ffffff;strokeColor=#2D7600;" parent="TBr5G2aEh6_7rcCmTg9J-1" vertex="1">
                    <mxGeometry x="300" y="120" width="100" height="30" as="geometry"/>
                </mxCell>
                <mxCell id="g5pNMoLmMVu-wYqBh1As-5" value="item" style="whiteSpace=wrap;html=1;fillColor=#1ba1e2;fontColor=#ffffff;strokeColor=#006EAF;" parent="TBr5G2aEh6_7rcCmTg9J-1" vertex="1">
                    <mxGeometry x="300" y="160" width="100" height="30" as="geometry"/>
                </mxCell>
                <mxCell id="g5pNMoLmMVu-wYqBh1As-6" value="qty" style="whiteSpace=wrap;html=1;fillColor=#1ba1e2;fontColor=#ffffff;strokeColor=#006EAF;" parent="TBr5G2aEh6_7rcCmTg9J-1" vertex="1">
                    <mxGeometry x="300" y="200" width="100" height="30" as="geometry"/>
                </mxCell>
                <mxCell id="g5pNMoLmMVu-wYqBh1As-8" value="outputs" style="whiteSpace=wrap;html=1;fillColor=#60a917;fontColor=#ffffff;strokeColor=#2D7600;" parent="TBr5G2aEh6_7rcCmTg9J-1" vertex="1">
                    <mxGeometry x="422.5" y="120" width="100" height="30" as="geometry"/>
                </mxCell>
                <mxCell id="g5pNMoLmMVu-wYqBh1As-9" value="item" style="whiteSpace=wrap;html=1;fillColor=#1ba1e2;fontColor=#ffffff;strokeColor=#006EAF;" parent="TBr5G2aEh6_7rcCmTg9J-1" vertex="1">
                    <mxGeometry x="422.5" y="160" width="100" height="30" as="geometry"/>
                </mxCell>
                <mxCell id="g5pNMoLmMVu-wYqBh1As-10" value="qty" style="whiteSpace=wrap;html=1;fillColor=#1ba1e2;fontColor=#ffffff;strokeColor=#006EAF;" parent="TBr5G2aEh6_7rcCmTg9J-1" vertex="1">
                    <mxGeometry x="422.5" y="200" width="100" height="30" as="geometry"/>
                </mxCell>
                <mxCell id="g5pNMoLmMVu-wYqBh1As-11" style="edgeStyle=none;html=1;entryX=1;entryY=0.5;entryDx=0;entryDy=0;fontSize=14;" parent="TBr5G2aEh6_7rcCmTg9J-1" source="g5pNMoLmMVu-wYqBh1As-12" edge="1">
                    <mxGeometry relative="1" as="geometry">
                        <mxPoint x="402.5" y="255" as="targetPoint"/>
                    </mxGeometry>
                </mxCell>
                <mxCell id="g5pNMoLmMVu-wYqBh1As-12" value="type" style="whiteSpace=wrap;html=1;fillColor=#1ba1e2;fontColor=#ffffff;strokeColor=#006EAF;" parent="TBr5G2aEh6_7rcCmTg9J-1" vertex="1">
                    <mxGeometry x="422.5" y="240" width="100" height="30" as="geometry"/>
                </mxCell>
                <mxCell id="g5pNMoLmMVu-wYqBh1As-14" value="BUILDING_STEP" style="whiteSpace=wrap;html=1;fillColor=#a20025;fontColor=#ffffff;strokeColor=#6F0000;" parent="TBr5G2aEh6_7rcCmTg9J-1" vertex="1">
                    <mxGeometry x="302.5" y="240" width="100" height="30" as="geometry"/>
                </mxCell>
                <mxCell id="g5pNMoLmMVu-wYqBh1As-15" value="SINK" style="whiteSpace=wrap;html=1;fillColor=#a20025;fontColor=#ffffff;strokeColor=#6F0000;" parent="TBr5G2aEh6_7rcCmTg9J-1" vertex="1">
                    <mxGeometry x="302.5" y="280" width="100" height="30" as="geometry"/>
                </mxCell>
                <mxCell id="g5pNMoLmMVu-wYqBh1As-16" value="id" style="whiteSpace=wrap;html=1;fillColor=#1ba1e2;fontColor=#ffffff;strokeColor=#006EAF;" parent="TBr5G2aEh6_7rcCmTg9J-1" vertex="1">
                    <mxGeometry x="422.5" y="280" width="100" height="30" as="geometry"/>
                </mxCell>
                <mxCell id="g5pNMoLmMVu-wYqBh1As-17" value="immediate export would be redundant i think" style="ellipse;whiteSpace=wrap;html=1;fontSize=12;fillColor=#d80073;fontColor=#ffffff;strokeColor=#A50040;" parent="TBr5G2aEh6_7rcCmTg9J-1" vertex="1">
                    <mxGeometry x="290" y="320" width="125" height="50" as="geometry"/>
                </mxCell>
                <mxCell id="g5pNMoLmMVu-wYqBh1As-18" value="suppliedInputs" style="whiteSpace=wrap;html=1;fillColor=#60a917;fontColor=#ffffff;strokeColor=#2D7600;" parent="TBr5G2aEh6_7rcCmTg9J-1" vertex="1">
                    <mxGeometry x="540" y="120" width="100" height="30" as="geometry"/>
                </mxCell>
                <mxCell id="g5pNMoLmMVu-wYqBh1As-21" value="qty" style="whiteSpace=wrap;html=1;fillColor=#1ba1e2;fontColor=#ffffff;strokeColor=#006EAF;" parent="TBr5G2aEh6_7rcCmTg9J-1" vertex="1">
                    <mxGeometry x="540" y="160" width="100" height="30" as="geometry"/>
                </mxCell>
                <mxCell id="g5pNMoLmMVu-wYqBh1As-22" value="id" style="whiteSpace=wrap;html=1;fillColor=#1ba1e2;fontColor=#ffffff;strokeColor=#006EAF;" parent="TBr5G2aEh6_7rcCmTg9J-1" vertex="1">
                    <mxGeometry x="540" y="200" width="100" height="30" as="geometry"/>
                </mxCell>
                <mxCell id="TBr5G2aEh6_7rcCmTg9J-9" value="" style="shape=cylinder3;whiteSpace=wrap;html=1;boundedLbl=1;backgroundOutline=1;size=5;" parent="TBr5G2aEh6_7rcCmTg9J-1" vertex="1">
                    <mxGeometry x="630" y="110" width="20" height="30" as="geometry"/>
                </mxCell>
                <mxCell id="zpHAaM-LT0MnhkIZc3-a-0" value="" style="shape=cylinder3;whiteSpace=wrap;html=1;boundedLbl=1;backgroundOutline=1;size=5;" parent="TBr5G2aEh6_7rcCmTg9J-1" vertex="1">
                    <mxGeometry x="510" y="110" width="20" height="30" as="geometry"/>
                </mxCell>
                <mxCell id="RamcfN-yfFcRYTJ_UbZQ-0" value="id" style="whiteSpace=wrap;html=1;fillColor=#60a917;fontColor=#ffffff;strokeColor=#2D7600;" parent="TBr5G2aEh6_7rcCmTg9J-1" vertex="1">
                    <mxGeometry x="-60" y="120" width="100" height="30" as="geometry"/>
                </mxCell>
            </root>
        </mxGraphModel>
    </diagram>
    <diagram name="ImportStep" id="DcJB8MthWrc9v1SMf_lY">
        <mxGraphModel dx="3401" dy="848" grid="1" gridSize="10" guides="1" tooltips="1" connect="1" arrows="1" fold="1" page="1" pageScale="1" pageWidth="827" pageHeight="1169" math="0" shadow="0">
            <root>
                <mxCell id="ceoIpG9HlyksORdKJVlB-0"/>
                <mxCell id="ceoIpG9HlyksORdKJVlB-1" parent="ceoIpG9HlyksORdKJVlB-0"/>
                <mxCell id="ceoIpG9HlyksORdKJVlB-2" value="Extraction provides a connection between a Factory and a Node.&lt;br&gt;&lt;br&gt;Extraction needs a resource and an amount. Inputs must be supplied from a Node.&amp;nbsp;&lt;br&gt;&lt;br&gt;Each node will be responsible for what extractor and shards are supplied" style="ellipse;whiteSpace=wrap;html=1;fontSize=12;fillColor=#d80073;fontColor=#ffffff;strokeColor=#A50040;spacing=35;" vertex="1" parent="ceoIpG9HlyksORdKJVlB-1">
                    <mxGeometry x="720" y="80" width="463" height="170" as="geometry"/>
                </mxCell>
                <mxCell id="ceoIpG9HlyksORdKJVlB-3" value="ImportStep" style="whiteSpace=wrap;html=1;verticalAlign=top;spacing=10;fontSize=14;" vertex="1" parent="ceoIpG9HlyksORdKJVlB-1">
                    <mxGeometry x="-80" y="80" width="760" height="360" as="geometry"/>
                </mxCell>
                <mxCell id="ceoIpG9HlyksORdKJVlB-4" value="factory" style="whiteSpace=wrap;html=1;fillColor=#60a917;fontColor=#ffffff;strokeColor=#2D7600;" vertex="1" parent="ceoIpG9HlyksORdKJVlB-1">
                    <mxGeometry x="60" y="120" width="100" height="30" as="geometry"/>
                </mxCell>
                <mxCell id="ceoIpG9HlyksORdKJVlB-5" value="type" style="whiteSpace=wrap;html=1;fillColor=#60a917;fontColor=#ffffff;strokeColor=#2D7600;" vertex="1" parent="ceoIpG9HlyksORdKJVlB-1">
                    <mxGeometry x="180" y="120" width="100" height="30" as="geometry"/>
                </mxCell>
                <mxCell id="ceoIpG9HlyksORdKJVlB-6" value="EXTRACTION" style="whiteSpace=wrap;html=1;fillColor=#a20025;fontColor=#ffffff;strokeColor=#6F0000;" vertex="1" parent="ceoIpG9HlyksORdKJVlB-1">
                    <mxGeometry x="180" y="160" width="100" height="30" as="geometry"/>
                </mxCell>
                <mxCell id="ceoIpG9HlyksORdKJVlB-7" value="product" style="whiteSpace=wrap;html=1;fillColor=#60a917;fontColor=#ffffff;strokeColor=#2D7600;" vertex="1" parent="ceoIpG9HlyksORdKJVlB-1">
                    <mxGeometry x="300" y="120" width="100" height="30" as="geometry"/>
                </mxCell>
                <mxCell id="ceoIpG9HlyksORdKJVlB-8" value="item" style="whiteSpace=wrap;html=1;fillColor=#1ba1e2;fontColor=#ffffff;strokeColor=#006EAF;" vertex="1" parent="ceoIpG9HlyksORdKJVlB-1">
                    <mxGeometry x="300" y="160" width="100" height="30" as="geometry"/>
                </mxCell>
                <mxCell id="ceoIpG9HlyksORdKJVlB-9" value="qty" style="whiteSpace=wrap;html=1;fillColor=#1ba1e2;fontColor=#ffffff;strokeColor=#006EAF;" vertex="1" parent="ceoIpG9HlyksORdKJVlB-1">
                    <mxGeometry x="300" y="200" width="100" height="30" as="geometry"/>
                </mxCell>
                <mxCell id="ceoIpG9HlyksORdKJVlB-10" value="outputs" style="whiteSpace=wrap;html=1;fillColor=#60a917;fontColor=#ffffff;strokeColor=#2D7600;" vertex="1" parent="ceoIpG9HlyksORdKJVlB-1">
                    <mxGeometry x="422.5" y="120" width="100" height="30" as="geometry"/>
                </mxCell>
                <mxCell id="ceoIpG9HlyksORdKJVlB-11" value="item" style="whiteSpace=wrap;html=1;fillColor=#1ba1e2;fontColor=#ffffff;strokeColor=#006EAF;" vertex="1" parent="ceoIpG9HlyksORdKJVlB-1">
                    <mxGeometry x="422.5" y="160" width="100" height="30" as="geometry"/>
                </mxCell>
                <mxCell id="ceoIpG9HlyksORdKJVlB-12" value="qty" style="whiteSpace=wrap;html=1;fillColor=#1ba1e2;fontColor=#ffffff;strokeColor=#006EAF;" vertex="1" parent="ceoIpG9HlyksORdKJVlB-1">
                    <mxGeometry x="422.5" y="200" width="100" height="30" as="geometry"/>
                </mxCell>
                <mxCell id="ceoIpG9HlyksORdKJVlB-13" style="edgeStyle=none;html=1;entryX=1;entryY=0.5;entryDx=0;entryDy=0;fontSize=14;" edge="1" parent="ceoIpG9HlyksORdKJVlB-1" source="ceoIpG9HlyksORdKJVlB-14">
                    <mxGeometry relative="1" as="geometry">
                        <mxPoint x="402.5" y="255" as="targetPoint"/>
                    </mxGeometry>
                </mxCell>
                <mxCell id="ceoIpG9HlyksORdKJVlB-14" value="type" style="whiteSpace=wrap;html=1;fillColor=#1ba1e2;fontColor=#ffffff;strokeColor=#006EAF;" vertex="1" parent="ceoIpG9HlyksORdKJVlB-1">
                    <mxGeometry x="422.5" y="240" width="100" height="30" as="geometry"/>
                </mxCell>
                <mxCell id="ceoIpG9HlyksORdKJVlB-15" value="BUILDING_STEP" style="whiteSpace=wrap;html=1;fillColor=#a20025;fontColor=#ffffff;strokeColor=#6F0000;" vertex="1" parent="ceoIpG9HlyksORdKJVlB-1">
                    <mxGeometry x="302.5" y="240" width="100" height="30" as="geometry"/>
                </mxCell>
                <mxCell id="ceoIpG9HlyksORdKJVlB-16" value="SINK" style="whiteSpace=wrap;html=1;fillColor=#a20025;fontColor=#ffffff;strokeColor=#6F0000;" vertex="1" parent="ceoIpG9HlyksORdKJVlB-1">
                    <mxGeometry x="302.5" y="280" width="100" height="30" as="geometry"/>
                </mxCell>
                <mxCell id="ceoIpG9HlyksORdKJVlB-17" value="id" style="whiteSpace=wrap;html=1;fillColor=#1ba1e2;fontColor=#ffffff;strokeColor=#006EAF;" vertex="1" parent="ceoIpG9HlyksORdKJVlB-1">
                    <mxGeometry x="422.5" y="280" width="100" height="30" as="geometry"/>
                </mxCell>
                <mxCell id="ceoIpG9HlyksORdKJVlB-18" value="immediate export would be redundant i think" style="ellipse;whiteSpace=wrap;html=1;fontSize=12;fillColor=#d80073;fontColor=#ffffff;strokeColor=#A50040;" vertex="1" parent="ceoIpG9HlyksORdKJVlB-1">
                    <mxGeometry x="290" y="320" width="125" height="50" as="geometry"/>
                </mxCell>
                <mxCell id="ceoIpG9HlyksORdKJVlB-19" value="suppliedInputs" style="whiteSpace=wrap;html=1;fillColor=#60a917;fontColor=#ffffff;strokeColor=#2D7600;" vertex="1" parent="ceoIpG9HlyksORdKJVlB-1">
                    <mxGeometry x="540" y="120" width="100" height="30" as="geometry"/>
                </mxCell>
                <mxCell id="ceoIpG9HlyksORdKJVlB-20" value="qty" style="whiteSpace=wrap;html=1;fillColor=#1ba1e2;fontColor=#ffffff;strokeColor=#006EAF;" vertex="1" parent="ceoIpG9HlyksORdKJVlB-1">
                    <mxGeometry x="540" y="160" width="100" height="30" as="geometry"/>
                </mxCell>
                <mxCell id="ceoIpG9HlyksORdKJVlB-21" value="id" style="whiteSpace=wrap;html=1;fillColor=#1ba1e2;fontColor=#ffffff;strokeColor=#006EAF;" vertex="1" parent="ceoIpG9HlyksORdKJVlB-1">
                    <mxGeometry x="540" y="200" width="100" height="30" as="geometry"/>
                </mxCell>
                <mxCell id="ceoIpG9HlyksORdKJVlB-22" value="" style="shape=cylinder3;whiteSpace=wrap;html=1;boundedLbl=1;backgroundOutline=1;size=5;" vertex="1" parent="ceoIpG9HlyksORdKJVlB-1">
                    <mxGeometry x="630" y="110" width="20" height="30" as="geometry"/>
                </mxCell>
                <mxCell id="ceoIpG9HlyksORdKJVlB-23" value="" style="shape=cylinder3;whiteSpace=wrap;html=1;boundedLbl=1;backgroundOutline=1;size=5;" vertex="1" parent="ceoIpG9HlyksORdKJVlB-1">
                    <mxGeometry x="510" y="110" width="20" height="30" as="geometry"/>
                </mxCell>
                <mxCell id="ceoIpG9HlyksORdKJVlB-24" value="id" style="whiteSpace=wrap;html=1;fillColor=#60a917;fontColor=#ffffff;strokeColor=#2D7600;" vertex="1" parent="ceoIpG9HlyksORdKJVlB-1">
                    <mxGeometry x="-60" y="120" width="100" height="30" as="geometry"/>
                </mxCell>
                <mxCell id="ceoIpG9HlyksORdKJVlB-25" value="ImportStep provides a connection between 2 factories.&lt;br&gt;&lt;br&gt;Need to be able to exist in non-linked state, eg specify that an item will be imported but without knowing where from at that point in time.&lt;br&gt;&lt;br&gt;" style="ellipse;whiteSpace=wrap;html=1;fontSize=12;fillColor=#d80073;fontColor=#ffffff;strokeColor=#A50040;spacing=35;" vertex="1" parent="ceoIpG9HlyksORdKJVlB-1">
                    <mxGeometry x="730" y="280" width="463" height="170" as="geometry"/>
                </mxCell>
            </root>
        </mxGraphModel>
    </diagram>
    <diagram id="AlHJoXwWG1MAQ3HiVJlR" name="Factory">
        <mxGraphModel dx="2245" dy="759" grid="1" gridSize="10" guides="1" tooltips="1" connect="1" arrows="1" fold="1" page="1" pageScale="1" pageWidth="827" pageHeight="1169" math="0" shadow="0">
            <root>
                <mxCell id="WNOgOVrLgYnlK0IJxaGU-0"/>
                <mxCell id="WNOgOVrLgYnlK0IJxaGU-1" parent="WNOgOVrLgYnlK0IJxaGU-0"/>
                <mxCell id="jX_mc22cXWXqx9BiomP8-0" value="Factory" style="whiteSpace=wrap;html=1;verticalAlign=top;spacing=10;fontSize=14;" parent="WNOgOVrLgYnlK0IJxaGU-1" vertex="1">
                    <mxGeometry x="40" y="120" width="760" height="360" as="geometry"/>
                </mxCell>
                <mxCell id="jX_mc22cXWXqx9BiomP8-8" value="location" style="whiteSpace=wrap;html=1;fillColor=#60a917;fontColor=#ffffff;strokeColor=#2D7600;" parent="WNOgOVrLgYnlK0IJxaGU-1" vertex="1">
                    <mxGeometry x="300" y="160" width="100" height="30" as="geometry"/>
                </mxCell>
                <mxCell id="jX_mc22cXWXqx9BiomP8-9" value="Factory contains data on the name and location of the factory&lt;br&gt;&lt;br&gt;Location being in-game, not view-logic" style="ellipse;whiteSpace=wrap;html=1;fontSize=12;fillColor=#d80073;fontColor=#ffffff;strokeColor=#A50040;spacing=35;" parent="WNOgOVrLgYnlK0IJxaGU-1" vertex="1">
                    <mxGeometry x="840" y="120" width="360" height="120" as="geometry"/>
                </mxCell>
                <mxCell id="jX_mc22cXWXqx9BiomP8-10" value="name" style="whiteSpace=wrap;html=1;fillColor=#60a917;fontColor=#ffffff;strokeColor=#2D7600;" parent="WNOgOVrLgYnlK0IJxaGU-1" vertex="1">
                    <mxGeometry x="180" y="160" width="100" height="30" as="geometry"/>
                </mxCell>
                <mxCell id="jX_mc22cXWXqx9BiomP8-38" value="x" style="whiteSpace=wrap;html=1;fillColor=#1ba1e2;fontColor=#ffffff;strokeColor=#006EAF;" parent="WNOgOVrLgYnlK0IJxaGU-1" vertex="1">
                    <mxGeometry x="300" y="200" width="100" height="30" as="geometry"/>
                </mxCell>
                <mxCell id="jX_mc22cXWXqx9BiomP8-39" value="y" style="whiteSpace=wrap;html=1;fillColor=#1ba1e2;fontColor=#ffffff;strokeColor=#006EAF;" parent="WNOgOVrLgYnlK0IJxaGU-1" vertex="1">
                    <mxGeometry x="300" y="240" width="100" height="30" as="geometry"/>
                </mxCell>
                <mxCell id="jX_mc22cXWXqx9BiomP8-40" value="buildingSteps" style="whiteSpace=wrap;html=1;fillColor=#60a917;fontColor=#ffffff;strokeColor=#2D7600;" parent="WNOgOVrLgYnlK0IJxaGU-1" vertex="1">
                    <mxGeometry x="420" y="160" width="100" height="30" as="geometry"/>
                </mxCell>
                <mxCell id="jX_mc22cXWXqx9BiomP8-42" value="id" style="whiteSpace=wrap;html=1;fillColor=#1ba1e2;fontColor=#ffffff;strokeColor=#006EAF;" parent="WNOgOVrLgYnlK0IJxaGU-1" vertex="1">
                    <mxGeometry x="420" y="200" width="100" height="30" as="geometry"/>
                </mxCell>
                <mxCell id="_Q96Wc4kXDk_FWRg4fmQ-0" value="" style="shape=cylinder3;whiteSpace=wrap;html=1;boundedLbl=1;backgroundOutline=1;size=5;" parent="WNOgOVrLgYnlK0IJxaGU-1" vertex="1">
                    <mxGeometry x="510" y="150" width="20" height="30" as="geometry"/>
                </mxCell>
                <mxCell id="_f3tbeAmaRKV7N25sINe-0" value="maxBelt" style="whiteSpace=wrap;html=1;fillColor=#60a917;fontColor=#ffffff;strokeColor=#2D7600;" parent="WNOgOVrLgYnlK0IJxaGU-1" vertex="1">
                    <mxGeometry x="540" y="160" width="100" height="30" as="geometry"/>
                </mxCell>
                <mxCell id="_f3tbeAmaRKV7N25sINe-1" value="maxPipe" style="whiteSpace=wrap;html=1;fillColor=#60a917;fontColor=#ffffff;strokeColor=#2D7600;" parent="WNOgOVrLgYnlK0IJxaGU-1" vertex="1">
                    <mxGeometry x="660" y="160" width="100" height="30" as="geometry"/>
                </mxCell>
                <mxCell id="_f3tbeAmaRKV7N25sINe-2" value="id" style="whiteSpace=wrap;html=1;fillColor=#a20025;fontColor=#ffffff;strokeColor=#6F0000;" parent="WNOgOVrLgYnlK0IJxaGU-1" vertex="1">
                    <mxGeometry x="540" y="200" width="100" height="30" as="geometry"/>
                </mxCell>
                <mxCell id="tS3LdkwVeXk1W9X4H6Co-0" value="id" style="whiteSpace=wrap;html=1;fillColor=#60a917;fontColor=#ffffff;strokeColor=#2D7600;" parent="WNOgOVrLgYnlK0IJxaGU-1" vertex="1">
                    <mxGeometry x="60" y="160" width="100" height="30" as="geometry"/>
                </mxCell>
            </root>
        </mxGraphModel>
    </diagram>
    <diagram id="ZOugEcGGoaLRtXjgxhMU" name="Constants">
        <mxGraphModel dx="2575" dy="1916" grid="1" gridSize="10" guides="1" tooltips="1" connect="1" arrows="1" fold="1" page="1" pageScale="1" pageWidth="827" pageHeight="1169" math="0" shadow="0">
            <root>
                <mxCell id="idvuCHxaKK7CSnJ86SX5-0"/>
                <mxCell id="idvuCHxaKK7CSnJ86SX5-1" parent="idvuCHxaKK7CSnJ86SX5-0"/>
                <mxCell id="i6a5o5j8Hw-aen32MUmD-0" value="Constants" style="whiteSpace=wrap;html=1;verticalAlign=top;spacing=10;fontSize=14;" vertex="1" parent="idvuCHxaKK7CSnJ86SX5-1">
                    <mxGeometry x="40" y="120" width="960" height="360" as="geometry"/>
                </mxCell>
                <mxCell id="NwDOXiOKp-S67K5D8M4K-0" value="MAX_BELT" style="whiteSpace=wrap;html=1;fillColor=#60a917;fontColor=#ffffff;strokeColor=#2D7600;" vertex="1" parent="idvuCHxaKK7CSnJ86SX5-1">
                    <mxGeometry x="60" y="160" width="140" height="30" as="geometry"/>
                </mxCell>
                <mxCell id="d1XpA4JWDlnCVIU62FJ4-2" value="MK_1" style="whiteSpace=wrap;html=1;fillColor=#1ba1e2;fontColor=#ffffff;strokeColor=#006EAF;" vertex="1" parent="idvuCHxaKK7CSnJ86SX5-1">
                    <mxGeometry x="60" y="200" width="100" height="30" as="geometry"/>
                </mxCell>
                <mxCell id="d1XpA4JWDlnCVIU62FJ4-3" value="MK_2" style="whiteSpace=wrap;html=1;fillColor=#1ba1e2;fontColor=#ffffff;strokeColor=#006EAF;" vertex="1" parent="idvuCHxaKK7CSnJ86SX5-1">
                    <mxGeometry x="60" y="240" width="100" height="30" as="geometry"/>
                </mxCell>
                <mxCell id="d1XpA4JWDlnCVIU62FJ4-4" value="60" style="whiteSpace=wrap;html=1;fillColor=#a20025;fontColor=#ffffff;strokeColor=#6F0000;" vertex="1" parent="idvuCHxaKK7CSnJ86SX5-1">
                    <mxGeometry x="170" y="200" width="100" height="30" as="geometry"/>
                </mxCell>
                <mxCell id="d1XpA4JWDlnCVIU62FJ4-5" value="120" style="whiteSpace=wrap;html=1;fillColor=#a20025;fontColor=#ffffff;strokeColor=#6F0000;" vertex="1" parent="idvuCHxaKK7CSnJ86SX5-1">
                    <mxGeometry x="170" y="240" width="100" height="30" as="geometry"/>
                </mxCell>
                <mxCell id="d1XpA4JWDlnCVIU62FJ4-6" value="270" style="whiteSpace=wrap;html=1;fillColor=#a20025;fontColor=#ffffff;strokeColor=#6F0000;" vertex="1" parent="idvuCHxaKK7CSnJ86SX5-1">
                    <mxGeometry x="170" y="280" width="100" height="30" as="geometry"/>
                </mxCell>
                <mxCell id="d1XpA4JWDlnCVIU62FJ4-7" value="480" style="whiteSpace=wrap;html=1;fillColor=#a20025;fontColor=#ffffff;strokeColor=#6F0000;" vertex="1" parent="idvuCHxaKK7CSnJ86SX5-1">
                    <mxGeometry x="170" y="320" width="100" height="30" as="geometry"/>
                </mxCell>
                <mxCell id="d1XpA4JWDlnCVIU62FJ4-8" value="780" style="whiteSpace=wrap;html=1;fillColor=#a20025;fontColor=#ffffff;strokeColor=#6F0000;" vertex="1" parent="idvuCHxaKK7CSnJ86SX5-1">
                    <mxGeometry x="170" y="360" width="100" height="30" as="geometry"/>
                </mxCell>
                <mxCell id="d1XpA4JWDlnCVIU62FJ4-9" value="NODE_PURITY" style="whiteSpace=wrap;html=1;fillColor=#60a917;fontColor=#ffffff;strokeColor=#2D7600;" vertex="1" parent="idvuCHxaKK7CSnJ86SX5-1">
                    <mxGeometry x="540" y="160" width="140" height="30" as="geometry"/>
                </mxCell>
                <mxCell id="d1XpA4JWDlnCVIU62FJ4-10" value="IMPURE" style="whiteSpace=wrap;html=1;fillColor=#1ba1e2;fontColor=#ffffff;strokeColor=#006EAF;" vertex="1" parent="idvuCHxaKK7CSnJ86SX5-1">
                    <mxGeometry x="540" y="200" width="100" height="30" as="geometry"/>
                </mxCell>
                <mxCell id="d1XpA4JWDlnCVIU62FJ4-11" value="NORMAL" style="whiteSpace=wrap;html=1;fillColor=#1ba1e2;fontColor=#ffffff;strokeColor=#006EAF;" vertex="1" parent="idvuCHxaKK7CSnJ86SX5-1">
                    <mxGeometry x="540" y="240" width="100" height="30" as="geometry"/>
                </mxCell>
                <mxCell id="d1XpA4JWDlnCVIU62FJ4-12" value="PURE" style="whiteSpace=wrap;html=1;fillColor=#1ba1e2;fontColor=#ffffff;strokeColor=#006EAF;" vertex="1" parent="idvuCHxaKK7CSnJ86SX5-1">
                    <mxGeometry x="540" y="280" width="100" height="30" as="geometry"/>
                </mxCell>
                <mxCell id="d1XpA4JWDlnCVIU62FJ4-13" value="0.5" style="whiteSpace=wrap;html=1;fillColor=#1ba1e2;fontColor=#ffffff;strokeColor=#006EAF;" vertex="1" parent="idvuCHxaKK7CSnJ86SX5-1">
                    <mxGeometry x="780" y="200" width="100" height="30" as="geometry"/>
                </mxCell>
                <mxCell id="d1XpA4JWDlnCVIU62FJ4-16" value="30" style="whiteSpace=wrap;html=1;fillColor=#a20025;fontColor=#ffffff;strokeColor=#6F0000;" vertex="1" parent="idvuCHxaKK7CSnJ86SX5-1">
                    <mxGeometry x="660" y="200" width="100" height="30" as="geometry"/>
                </mxCell>
                <mxCell id="d1XpA4JWDlnCVIU62FJ4-17" value="60" style="whiteSpace=wrap;html=1;fillColor=#a20025;fontColor=#ffffff;strokeColor=#6F0000;" vertex="1" parent="idvuCHxaKK7CSnJ86SX5-1">
                    <mxGeometry x="660" y="240" width="100" height="30" as="geometry"/>
                </mxCell>
                <mxCell id="d1XpA4JWDlnCVIU62FJ4-18" value="120" style="whiteSpace=wrap;html=1;fillColor=#a20025;fontColor=#ffffff;strokeColor=#6F0000;" vertex="1" parent="idvuCHxaKK7CSnJ86SX5-1">
                    <mxGeometry x="660" y="280" width="100" height="30" as="geometry"/>
                </mxCell>
                <mxCell id="d1XpA4JWDlnCVIU62FJ4-19" value="SHARDS" style="whiteSpace=wrap;html=1;fillColor=#60a917;fontColor=#ffffff;strokeColor=#2D7600;" vertex="1" parent="idvuCHxaKK7CSnJ86SX5-1">
                    <mxGeometry x="780" y="160" width="140" height="30" as="geometry"/>
                </mxCell>
                <mxCell id="xdlfcT3t-_Br5xRsZbWp-0" value="Apply power shards manually?" style="ellipse;whiteSpace=wrap;html=1;fontSize=12;fillColor=#d80073;fontColor=#ffffff;strokeColor=#A50040;spacing=35;" vertex="1" parent="idvuCHxaKK7CSnJ86SX5-1">
                    <mxGeometry x="700" y="330" width="180" height="60" as="geometry"/>
                </mxCell>
                <mxCell id="xdlfcT3t-_Br5xRsZbWp-1" value="Set miner manually? (Mk 1, Mk 2, Mk 3)" style="ellipse;whiteSpace=wrap;html=1;fontSize=12;fillColor=#d80073;fontColor=#ffffff;strokeColor=#A50040;spacing=35;" vertex="1" parent="idvuCHxaKK7CSnJ86SX5-1">
                    <mxGeometry x="540" y="380" width="180" height="60" as="geometry"/>
                </mxCell>
                <mxCell id="xdlfcT3t-_Br5xRsZbWp-2" value="Have ability to set Max Belt Speed&lt;br&gt;&lt;br&gt;Have ability to set Max Pipe Speed&lt;br&gt;&lt;br&gt;Have ability to set Miner Type" style="ellipse;whiteSpace=wrap;html=1;fontSize=12;fillColor=#d80073;fontColor=#ffffff;strokeColor=#A50040;spacing=35;" vertex="1" parent="idvuCHxaKK7CSnJ86SX5-1">
                    <mxGeometry x="1080" y="-10" width="500" height="230" as="geometry"/>
                </mxCell>
                <mxCell id="2tQyciz7987W4z9XcQZT-0" value="MAX_BELT" style="whiteSpace=wrap;html=1;fillColor=#60a917;fontColor=#ffffff;strokeColor=#2D7600;" vertex="1" parent="idvuCHxaKK7CSnJ86SX5-1">
                    <mxGeometry x="300" y="160" width="140" height="30" as="geometry"/>
                </mxCell>
                <mxCell id="2tQyciz7987W4z9XcQZT-1" value="MK_3" style="whiteSpace=wrap;html=1;fillColor=#1ba1e2;fontColor=#ffffff;strokeColor=#006EAF;" vertex="1" parent="idvuCHxaKK7CSnJ86SX5-1">
                    <mxGeometry x="60" y="280" width="100" height="30" as="geometry"/>
                </mxCell>
                <mxCell id="2tQyciz7987W4z9XcQZT-2" value="MK_4" style="whiteSpace=wrap;html=1;fillColor=#1ba1e2;fontColor=#ffffff;strokeColor=#006EAF;" vertex="1" parent="idvuCHxaKK7CSnJ86SX5-1">
                    <mxGeometry x="60" y="320" width="100" height="30" as="geometry"/>
                </mxCell>
                <mxCell id="2tQyciz7987W4z9XcQZT-3" value="MK_5" style="whiteSpace=wrap;html=1;fillColor=#1ba1e2;fontColor=#ffffff;strokeColor=#006EAF;" vertex="1" parent="idvuCHxaKK7CSnJ86SX5-1">
                    <mxGeometry x="60" y="360" width="100" height="30" as="geometry"/>
                </mxCell>
                <mxCell id="2tQyciz7987W4z9XcQZT-4" value="MK_1" style="whiteSpace=wrap;html=1;fillColor=#1ba1e2;fontColor=#ffffff;strokeColor=#006EAF;" vertex="1" parent="idvuCHxaKK7CSnJ86SX5-1">
                    <mxGeometry x="300" y="200" width="100" height="30" as="geometry"/>
                </mxCell>
                <mxCell id="2tQyciz7987W4z9XcQZT-5" value="MK_2" style="whiteSpace=wrap;html=1;fillColor=#1ba1e2;fontColor=#ffffff;strokeColor=#006EAF;" vertex="1" parent="idvuCHxaKK7CSnJ86SX5-1">
                    <mxGeometry x="300" y="240" width="100" height="30" as="geometry"/>
                </mxCell>
                <mxCell id="2tQyciz7987W4z9XcQZT-7" value="600" style="whiteSpace=wrap;html=1;fillColor=#a20025;fontColor=#ffffff;strokeColor=#6F0000;" vertex="1" parent="idvuCHxaKK7CSnJ86SX5-1">
                    <mxGeometry x="414" y="240" width="100" height="30" as="geometry"/>
                </mxCell>
                <mxCell id="2tQyciz7987W4z9XcQZT-8" value="300" style="whiteSpace=wrap;html=1;fillColor=#a20025;fontColor=#ffffff;strokeColor=#6F0000;" vertex="1" parent="idvuCHxaKK7CSnJ86SX5-1">
                    <mxGeometry x="414" y="200" width="100" height="30" as="geometry"/>
                </mxCell>
            </root>
        </mxGraphModel>
    </diagram>
    <diagram id="1JFWoWfi2VueLEYfzOIo" name="Nodes">
        <mxGraphModel dx="2575" dy="747" grid="1" gridSize="10" guides="1" tooltips="1" connect="1" arrows="1" fold="1" page="1" pageScale="1" pageWidth="827" pageHeight="1169" math="0" shadow="0">
            <root>
                <mxCell id="IZir9ysTctLGNb3ch9qo-0"/>
                <mxCell id="IZir9ysTctLGNb3ch9qo-1" parent="IZir9ysTctLGNb3ch9qo-0"/>
                <mxCell id="7eINTfRigAXz_S__1CkW-0" value="Resource Nodes" style="whiteSpace=wrap;html=1;verticalAlign=top;spacing=10;fontSize=14;" vertex="1" parent="IZir9ysTctLGNb3ch9qo-1">
                    <mxGeometry x="40" y="120" width="880" height="200" as="geometry"/>
                </mxCell>
                <mxCell id="7eINTfRigAXz_S__1CkW-1" value="id" style="whiteSpace=wrap;html=1;fillColor=#60a917;fontColor=#ffffff;strokeColor=#2D7600;" vertex="1" parent="IZir9ysTctLGNb3ch9qo-1">
                    <mxGeometry x="60" y="160" width="100" height="30" as="geometry"/>
                </mxCell>
                <mxCell id="7eINTfRigAXz_S__1CkW-11" value="item" style="whiteSpace=wrap;html=1;fillColor=#60a917;fontColor=#ffffff;strokeColor=#2D7600;" vertex="1" parent="IZir9ysTctLGNb3ch9qo-1">
                    <mxGeometry x="180" y="160" width="100" height="30" as="geometry"/>
                </mxCell>
                <mxCell id="7eINTfRigAXz_S__1CkW-12" value="x" style="whiteSpace=wrap;html=1;fillColor=#1ba1e2;fontColor=#ffffff;strokeColor=#006EAF;" vertex="1" parent="IZir9ysTctLGNb3ch9qo-1">
                    <mxGeometry x="420" y="200" width="100" height="30" as="geometry"/>
                </mxCell>
                <mxCell id="7eINTfRigAXz_S__1CkW-13" value="y" style="whiteSpace=wrap;html=1;fillColor=#1ba1e2;fontColor=#ffffff;strokeColor=#006EAF;" vertex="1" parent="IZir9ysTctLGNb3ch9qo-1">
                    <mxGeometry x="420" y="240" width="100" height="30" as="geometry"/>
                </mxCell>
                <mxCell id="7eINTfRigAXz_S__1CkW-19" value="purity" style="whiteSpace=wrap;html=1;fillColor=#60a917;fontColor=#ffffff;strokeColor=#2D7600;" vertex="1" parent="IZir9ysTctLGNb3ch9qo-1">
                    <mxGeometry x="300" y="160" width="100" height="30" as="geometry"/>
                </mxCell>
                <mxCell id="7eINTfRigAXz_S__1CkW-22" value="location" style="whiteSpace=wrap;html=1;fillColor=#60a917;fontColor=#ffffff;strokeColor=#2D7600;" vertex="1" parent="IZir9ysTctLGNb3ch9qo-1">
                    <mxGeometry x="420" y="160" width="100" height="30" as="geometry"/>
                </mxCell>
                <mxCell id="WDe-WN946xLZBLFf9oO1-0" value="building" style="whiteSpace=wrap;html=1;fillColor=#60a917;fontColor=#ffffff;strokeColor=#2D7600;" vertex="1" parent="IZir9ysTctLGNb3ch9qo-1">
                    <mxGeometry x="540" y="160" width="100" height="30" as="geometry"/>
                </mxCell>
                <mxCell id="WDe-WN946xLZBLFf9oO1-1" value="overclock" style="whiteSpace=wrap;html=1;fillColor=#60a917;fontColor=#ffffff;strokeColor=#2D7600;" vertex="1" parent="IZir9ysTctLGNb3ch9qo-1">
                    <mxGeometry x="660" y="160" width="100" height="30" as="geometry"/>
                </mxCell>
                <mxCell id="WXP54EAQPj1RZ9B8CXMl-0" value="A resource node will be considered 'tapped' if it contains a building.&lt;br&gt;&lt;br&gt;Once tapped, it must have a clock speed.&lt;br&gt;&lt;br&gt;Resource node outputs should point to an ExtractionStep.&lt;br&gt;&lt;br&gt;From an extraction step, a factory may output to any other building step.&lt;br&gt;&lt;br&gt;This way there is only a single connection between a Node and a Factory" style="ellipse;whiteSpace=wrap;html=1;fontSize=12;fillColor=#d80073;fontColor=#ffffff;strokeColor=#A50040;spacing=35;" vertex="1" parent="IZir9ysTctLGNb3ch9qo-1">
                    <mxGeometry x="960" y="120" width="520" height="200" as="geometry"/>
                </mxCell>
                <mxCell id="WXP54EAQPj1RZ9B8CXMl-1" value="outputs" style="whiteSpace=wrap;html=1;fillColor=#60a917;fontColor=#ffffff;strokeColor=#2D7600;" vertex="1" parent="IZir9ysTctLGNb3ch9qo-1">
                    <mxGeometry x="780" y="160" width="100" height="30" as="geometry"/>
                </mxCell>
                <mxCell id="WXP54EAQPj1RZ9B8CXMl-2" value="type" style="whiteSpace=wrap;html=1;fillColor=#1ba1e2;fontColor=#ffffff;strokeColor=#006EAF;" vertex="1" parent="IZir9ysTctLGNb3ch9qo-1">
                    <mxGeometry x="780" y="200" width="100" height="30" as="geometry"/>
                </mxCell>
                <mxCell id="WXP54EAQPj1RZ9B8CXMl-3" value="id" style="whiteSpace=wrap;html=1;fillColor=#1ba1e2;fontColor=#ffffff;strokeColor=#006EAF;" vertex="1" parent="IZir9ysTctLGNb3ch9qo-1">
                    <mxGeometry x="780" y="240" width="100" height="30" as="geometry"/>
                </mxCell>
                <mxCell id="WXP54EAQPj1RZ9B8CXMl-4" value="qty" style="whiteSpace=wrap;html=1;fillColor=#1ba1e2;fontColor=#ffffff;strokeColor=#006EAF;" vertex="1" parent="IZir9ysTctLGNb3ch9qo-1">
                    <mxGeometry x="780" y="280" width="100" height="30" as="geometry"/>
                </mxCell>
            </root>
        </mxGraphModel>
    </diagram>
    <diagram id="QMez0XctcN_z0CNhOXl1" name="Page-9">
        <mxGraphModel dx="2575" dy="747" grid="1" gridSize="10" guides="1" tooltips="1" connect="1" arrows="1" fold="1" page="1" pageScale="1" pageWidth="827" pageHeight="1169" math="0" shadow="0">
            <root>
                <mxCell id="mNWhi-g9xtCgxVJM9nwS-0"/>
                <mxCell id="mNWhi-g9xtCgxVJM9nwS-1" parent="mNWhi-g9xtCgxVJM9nwS-0"/>
            </root>
        </mxGraphModel>
    </diagram>
</mxfile>